<mxfile host="app.diagrams.net" modified="2023-09-04T01:02:42.426Z" agent="Mozilla/5.0 (Windows NT 10.0; Win64; x64) AppleWebKit/537.36 (KHTML, like Gecko) Chrome/116.0.0.0 Safari/537.36 Edg/116.0.1938.62" etag="U3l67L_RLjpLOBLsNaZg" version="21.6.9" type="device" pages="3">
  <diagram name="Página-1" id="fsuoyFoAWx7GJ90wzJIB">
    <mxGraphModel dx="861" dy="502" grid="1" gridSize="10" guides="1" tooltips="1" connect="1" arrows="1" fold="1" page="1" pageScale="1" pageWidth="850" pageHeight="1100" math="0" shadow="0">
      <root>
        <mxCell id="0" />
        <mxCell id="1" parent="0" />
        <mxCell id="OInmoRgukonKRY14nYuu-3" style="rounded=0;orthogonalLoop=1;jettySize=auto;html=1;endArrow=none;endFill=0;" parent="1" source="OInmoRgukonKRY14nYuu-1" target="OInmoRgukonKRY14nYuu-2" edge="1">
          <mxGeometry relative="1" as="geometry" />
        </mxCell>
        <mxCell id="OInmoRgukonKRY14nYuu-10" value="Text" style="edgeLabel;html=1;align=center;verticalAlign=middle;resizable=0;points=[];fontSize=11;fontFamily=Helvetica;fontColor=default;" parent="OInmoRgukonKRY14nYuu-3" vertex="1" connectable="0">
          <mxGeometry x="0.0705" y="-3" relative="1" as="geometry">
            <mxPoint as="offset" />
          </mxGeometry>
        </mxCell>
        <mxCell id="OInmoRgukonKRY14nYuu-1" value="Departamento" style="whiteSpace=wrap;html=1;align=center;" parent="1" vertex="1">
          <mxGeometry x="220" y="320" width="100" height="40" as="geometry" />
        </mxCell>
        <mxCell id="OInmoRgukonKRY14nYuu-5" style="rounded=0;orthogonalLoop=1;jettySize=auto;html=1;startArrow=none;startFill=0;endArrow=none;endFill=0;fontSize=16;" parent="1" source="OInmoRgukonKRY14nYuu-2" target="OInmoRgukonKRY14nYuu-4" edge="1">
          <mxGeometry relative="1" as="geometry" />
        </mxCell>
        <mxCell id="OInmoRgukonKRY14nYuu-11" value="&lt;font style=&quot;font-size: 16px;&quot;&gt;N&lt;/font&gt;" style="edgeLabel;html=1;align=center;verticalAlign=middle;resizable=0;points=[];fontSize=11;fontFamily=Helvetica;fontColor=default;" parent="OInmoRgukonKRY14nYuu-5" vertex="1" connectable="0">
          <mxGeometry x="0.1308" y="1" relative="1" as="geometry">
            <mxPoint as="offset" />
          </mxGeometry>
        </mxCell>
        <mxCell id="OInmoRgukonKRY14nYuu-2" value="Trabalha para" style="shape=rhombus;perimeter=rhombusPerimeter;whiteSpace=wrap;html=1;align=center;fillColor=#dae8fc;strokeColor=#6c8ebf;" parent="1" vertex="1">
          <mxGeometry x="380" y="230" width="120" height="60" as="geometry" />
        </mxCell>
        <mxCell id="OInmoRgukonKRY14nYuu-7" style="edgeStyle=none;shape=connector;rounded=0;orthogonalLoop=1;jettySize=auto;html=1;entryX=1;entryY=0;entryDx=0;entryDy=0;labelBackgroundColor=default;strokeColor=default;fontFamily=Helvetica;fontSize=11;fontColor=default;startArrow=none;startFill=0;endArrow=none;endFill=0;" parent="1" source="OInmoRgukonKRY14nYuu-4" target="OInmoRgukonKRY14nYuu-6" edge="1">
          <mxGeometry relative="1" as="geometry" />
        </mxCell>
        <mxCell id="OInmoRgukonKRY14nYuu-14" value="Text" style="edgeLabel;html=1;align=center;verticalAlign=middle;resizable=0;points=[];fontSize=11;fontFamily=Helvetica;fontColor=default;" parent="OInmoRgukonKRY14nYuu-7" vertex="1" connectable="0">
          <mxGeometry x="-0.0981" y="3" relative="1" as="geometry">
            <mxPoint as="offset" />
          </mxGeometry>
        </mxCell>
        <mxCell id="OInmoRgukonKRY14nYuu-4" value="Funcionário" style="whiteSpace=wrap;html=1;align=center;" parent="1" vertex="1">
          <mxGeometry x="580" y="320" width="100" height="40" as="geometry" />
        </mxCell>
        <mxCell id="OInmoRgukonKRY14nYuu-6" value="Relationship" style="shape=rhombus;perimeter=rhombusPerimeter;whiteSpace=wrap;html=1;align=center;fontFamily=Helvetica;fontSize=11;fillColor=#dae8fc;strokeColor=#6c8ebf;" parent="1" vertex="1">
          <mxGeometry x="390" y="390" width="120" height="60" as="geometry" />
        </mxCell>
        <mxCell id="OInmoRgukonKRY14nYuu-9" style="edgeStyle=none;shape=connector;rounded=0;orthogonalLoop=1;jettySize=auto;html=1;labelBackgroundColor=default;strokeColor=default;fontFamily=Helvetica;fontSize=11;fontColor=default;startArrow=none;startFill=0;endArrow=none;endFill=0;" parent="1" source="OInmoRgukonKRY14nYuu-8" target="OInmoRgukonKRY14nYuu-4" edge="1">
          <mxGeometry relative="1" as="geometry" />
        </mxCell>
        <mxCell id="OInmoRgukonKRY14nYuu-8" value="Nome" style="ellipse;whiteSpace=wrap;html=1;align=center;fontFamily=Helvetica;fontSize=11;fillColor=#fff2cc;strokeColor=#d6b656;" parent="1" vertex="1">
          <mxGeometry x="640" y="240" width="100" height="40" as="geometry" />
        </mxCell>
        <mxCell id="OInmoRgukonKRY14nYuu-13" value="Entidade fraca" style="shape=ext;margin=3;double=1;whiteSpace=wrap;html=1;align=center;fontFamily=Helvetica;fontSize=11;fontColor=default;" parent="1" vertex="1">
          <mxGeometry x="620" y="120" width="100" height="40" as="geometry" />
        </mxCell>
        <mxCell id="OInmoRgukonKRY14nYuu-15" style="edgeStyle=none;shape=connector;rounded=0;orthogonalLoop=1;jettySize=auto;html=1;exitX=1;exitY=1;exitDx=0;exitDy=0;labelBackgroundColor=default;strokeColor=default;fontFamily=Helvetica;fontSize=11;fontColor=default;startArrow=none;startFill=0;endArrow=none;endFill=0;" parent="1" source="OInmoRgukonKRY14nYuu-6" target="OInmoRgukonKRY14nYuu-6" edge="1">
          <mxGeometry relative="1" as="geometry" />
        </mxCell>
      </root>
    </mxGraphModel>
  </diagram>
  <diagram id="V25PLbreA6YTJv_68lez" name="Página-2">
    <mxGraphModel dx="2198" dy="1349" grid="1" gridSize="10" guides="1" tooltips="1" connect="1" arrows="1" fold="1" page="1" pageScale="1" pageWidth="1100" pageHeight="850" math="0" shadow="0">
      <root>
        <mxCell id="0" />
        <mxCell id="1" parent="0" />
        <mxCell id="k189rI_YwZPAKSkOKAYH-25" style="edgeStyle=none;shape=connector;rounded=0;orthogonalLoop=1;jettySize=auto;html=1;exitX=0.5;exitY=0;exitDx=0;exitDy=0;labelBackgroundColor=default;strokeColor=default;fontFamily=Helvetica;fontSize=11;fontColor=default;endArrow=none;endFill=0;" edge="1" parent="1" source="k189rI_YwZPAKSkOKAYH-1" target="k189rI_YwZPAKSkOKAYH-5">
          <mxGeometry relative="1" as="geometry" />
        </mxCell>
        <mxCell id="k189rI_YwZPAKSkOKAYH-26" style="edgeStyle=none;shape=connector;rounded=0;orthogonalLoop=1;jettySize=auto;html=1;labelBackgroundColor=default;strokeColor=default;fontFamily=Helvetica;fontSize=11;fontColor=default;endArrow=none;endFill=0;" edge="1" parent="1" source="k189rI_YwZPAKSkOKAYH-1" target="k189rI_YwZPAKSkOKAYH-15">
          <mxGeometry relative="1" as="geometry" />
        </mxCell>
        <mxCell id="k189rI_YwZPAKSkOKAYH-68" style="edgeStyle=none;shape=connector;rounded=0;orthogonalLoop=1;jettySize=auto;html=1;labelBackgroundColor=default;strokeColor=default;fontFamily=Helvetica;fontSize=11;fontColor=default;endArrow=none;endFill=0;" edge="1" parent="1" source="k189rI_YwZPAKSkOKAYH-1" target="k189rI_YwZPAKSkOKAYH-67">
          <mxGeometry relative="1" as="geometry">
            <mxPoint x="536.1538461538462" y="286.9230769230769" as="targetPoint" />
          </mxGeometry>
        </mxCell>
        <mxCell id="k189rI_YwZPAKSkOKAYH-116" value="N" style="edgeLabel;html=1;align=center;verticalAlign=middle;resizable=0;points=[];fontSize=19;fontFamily=Helvetica;fontColor=default;fontStyle=1" vertex="1" connectable="0" parent="k189rI_YwZPAKSkOKAYH-68">
          <mxGeometry x="0.2069" y="-3" relative="1" as="geometry">
            <mxPoint x="2" y="-6" as="offset" />
          </mxGeometry>
        </mxCell>
        <mxCell id="k189rI_YwZPAKSkOKAYH-71" style="edgeStyle=none;shape=connector;rounded=0;orthogonalLoop=1;jettySize=auto;html=1;labelBackgroundColor=default;strokeColor=default;fontFamily=Helvetica;fontSize=11;fontColor=default;endArrow=none;endFill=0;" edge="1" parent="1" source="k189rI_YwZPAKSkOKAYH-1" target="k189rI_YwZPAKSkOKAYH-70">
          <mxGeometry relative="1" as="geometry">
            <mxPoint x="527" y="344" as="targetPoint" />
          </mxGeometry>
        </mxCell>
        <mxCell id="k189rI_YwZPAKSkOKAYH-121" value="N" style="edgeLabel;html=1;align=center;verticalAlign=middle;resizable=0;points=[];fontSize=19;fontFamily=Helvetica;fontColor=default;fontStyle=1" vertex="1" connectable="0" parent="k189rI_YwZPAKSkOKAYH-71">
          <mxGeometry x="0.0233" y="-3" relative="1" as="geometry">
            <mxPoint as="offset" />
          </mxGeometry>
        </mxCell>
        <mxCell id="k189rI_YwZPAKSkOKAYH-82" style="edgeStyle=none;shape=connector;rounded=0;orthogonalLoop=1;jettySize=auto;html=1;labelBackgroundColor=default;strokeColor=default;fontFamily=Helvetica;fontSize=19;fontColor=default;endArrow=none;endFill=0;fontStyle=1" edge="1" parent="1" source="k189rI_YwZPAKSkOKAYH-1" target="k189rI_YwZPAKSkOKAYH-99">
          <mxGeometry relative="1" as="geometry" />
        </mxCell>
        <mxCell id="k189rI_YwZPAKSkOKAYH-126" value="1" style="edgeLabel;html=1;align=center;verticalAlign=middle;resizable=0;points=[];fontSize=19;fontFamily=Helvetica;fontColor=default;fontStyle=1" vertex="1" connectable="0" parent="k189rI_YwZPAKSkOKAYH-82">
          <mxGeometry x="0.0293" y="1" relative="1" as="geometry">
            <mxPoint as="offset" />
          </mxGeometry>
        </mxCell>
        <mxCell id="k189rI_YwZPAKSkOKAYH-124" style="edgeStyle=none;shape=connector;rounded=0;orthogonalLoop=1;jettySize=auto;html=1;labelBackgroundColor=default;strokeColor=default;fontFamily=Helvetica;fontSize=11;fontColor=default;endArrow=none;endFill=0;entryX=0.333;entryY=0.667;entryDx=0;entryDy=0;entryPerimeter=0;" edge="1" parent="1" target="k189rI_YwZPAKSkOKAYH-67">
          <mxGeometry relative="1" as="geometry">
            <mxPoint x="465" y="279.99702127659566" as="sourcePoint" />
            <mxPoint x="602.2033898305085" y="262.48169491525414" as="targetPoint" />
          </mxGeometry>
        </mxCell>
        <mxCell id="k189rI_YwZPAKSkOKAYH-1" value="Aluno" style="whiteSpace=wrap;html=1;align=center;" vertex="1" parent="1">
          <mxGeometry x="365" y="260" width="100" height="40" as="geometry" />
        </mxCell>
        <mxCell id="k189rI_YwZPAKSkOKAYH-22" style="edgeStyle=none;shape=connector;rounded=0;orthogonalLoop=1;jettySize=auto;html=1;labelBackgroundColor=default;strokeColor=default;fontFamily=Helvetica;fontSize=11;fontColor=default;endArrow=none;endFill=0;" edge="1" parent="1" source="k189rI_YwZPAKSkOKAYH-2" target="k189rI_YwZPAKSkOKAYH-1">
          <mxGeometry relative="1" as="geometry" />
        </mxCell>
        <mxCell id="k189rI_YwZPAKSkOKAYH-2" value="Nome" style="ellipse;whiteSpace=wrap;html=1;align=center;" vertex="1" parent="1">
          <mxGeometry x="300" y="170" width="100" height="40" as="geometry" />
        </mxCell>
        <mxCell id="k189rI_YwZPAKSkOKAYH-5" value="Telefone" style="ellipse;whiteSpace=wrap;html=1;align=center;" vertex="1" parent="1">
          <mxGeometry x="355" y="100" width="100" height="40" as="geometry" />
        </mxCell>
        <mxCell id="k189rI_YwZPAKSkOKAYH-23" style="edgeStyle=none;shape=connector;rounded=0;orthogonalLoop=1;jettySize=auto;html=1;labelBackgroundColor=default;strokeColor=default;fontFamily=Helvetica;fontSize=11;fontColor=default;endArrow=none;endFill=0;" edge="1" parent="1" source="k189rI_YwZPAKSkOKAYH-6" target="k189rI_YwZPAKSkOKAYH-1">
          <mxGeometry relative="1" as="geometry" />
        </mxCell>
        <mxCell id="k189rI_YwZPAKSkOKAYH-6" value="Telefone" style="ellipse;whiteSpace=wrap;html=1;align=center;" vertex="1" parent="1">
          <mxGeometry x="250" y="370" width="100" height="40" as="geometry" />
        </mxCell>
        <mxCell id="k189rI_YwZPAKSkOKAYH-80" style="edgeStyle=none;shape=connector;rounded=0;orthogonalLoop=1;jettySize=auto;html=1;labelBackgroundColor=default;strokeColor=default;fontFamily=Helvetica;fontSize=11;fontColor=default;endArrow=none;endFill=0;" edge="1" parent="1" source="k189rI_YwZPAKSkOKAYH-7" target="k189rI_YwZPAKSkOKAYH-1">
          <mxGeometry relative="1" as="geometry" />
        </mxCell>
        <mxCell id="k189rI_YwZPAKSkOKAYH-7" value="Endereço" style="ellipse;whiteSpace=wrap;html=1;align=center;" vertex="1" parent="1">
          <mxGeometry x="225" y="250" width="100" height="40" as="geometry" />
        </mxCell>
        <mxCell id="k189rI_YwZPAKSkOKAYH-21" style="edgeStyle=none;shape=connector;rounded=0;orthogonalLoop=1;jettySize=auto;html=1;labelBackgroundColor=default;strokeColor=default;fontFamily=Helvetica;fontSize=11;fontColor=default;endArrow=none;endFill=0;" edge="1" parent="1" source="k189rI_YwZPAKSkOKAYH-9" target="k189rI_YwZPAKSkOKAYH-7">
          <mxGeometry relative="1" as="geometry" />
        </mxCell>
        <mxCell id="k189rI_YwZPAKSkOKAYH-9" value="Cidade" style="ellipse;whiteSpace=wrap;html=1;align=center;" vertex="1" parent="1">
          <mxGeometry x="125" y="220" width="100" height="40" as="geometry" />
        </mxCell>
        <mxCell id="k189rI_YwZPAKSkOKAYH-20" value="" style="edgeStyle=none;shape=connector;rounded=0;orthogonalLoop=1;jettySize=auto;html=1;labelBackgroundColor=default;strokeColor=default;fontFamily=Helvetica;fontSize=11;fontColor=default;endArrow=none;endFill=0;" edge="1" parent="1" source="k189rI_YwZPAKSkOKAYH-10" target="k189rI_YwZPAKSkOKAYH-7">
          <mxGeometry relative="1" as="geometry" />
        </mxCell>
        <mxCell id="k189rI_YwZPAKSkOKAYH-10" value="CEP" style="ellipse;whiteSpace=wrap;html=1;align=center;" vertex="1" parent="1">
          <mxGeometry x="30" y="250" width="100" height="40" as="geometry" />
        </mxCell>
        <mxCell id="k189rI_YwZPAKSkOKAYH-19" style="edgeStyle=none;shape=connector;rounded=0;orthogonalLoop=1;jettySize=auto;html=1;labelBackgroundColor=default;strokeColor=default;fontFamily=Helvetica;fontSize=11;fontColor=default;endArrow=none;endFill=0;" edge="1" parent="1" source="k189rI_YwZPAKSkOKAYH-12" target="k189rI_YwZPAKSkOKAYH-7">
          <mxGeometry relative="1" as="geometry" />
        </mxCell>
        <mxCell id="k189rI_YwZPAKSkOKAYH-12" value="Rua" style="ellipse;whiteSpace=wrap;html=1;align=center;" vertex="1" parent="1">
          <mxGeometry x="90" y="290" width="100" height="40" as="geometry" />
        </mxCell>
        <mxCell id="k189rI_YwZPAKSkOKAYH-17" style="rounded=0;orthogonalLoop=1;jettySize=auto;html=1;exitX=1;exitY=0;exitDx=0;exitDy=0;endArrow=none;endFill=0;" edge="1" parent="1" source="k189rI_YwZPAKSkOKAYH-13" target="k189rI_YwZPAKSkOKAYH-7">
          <mxGeometry relative="1" as="geometry" />
        </mxCell>
        <mxCell id="k189rI_YwZPAKSkOKAYH-13" value="Número" style="ellipse;whiteSpace=wrap;html=1;align=center;" vertex="1" parent="1">
          <mxGeometry x="70" y="340" width="100" height="40" as="geometry" />
        </mxCell>
        <mxCell id="k189rI_YwZPAKSkOKAYH-24" style="edgeStyle=none;shape=connector;rounded=0;orthogonalLoop=1;jettySize=auto;html=1;labelBackgroundColor=default;strokeColor=default;fontFamily=Helvetica;fontSize=11;fontColor=default;endArrow=none;endFill=0;" edge="1" parent="1" source="k189rI_YwZPAKSkOKAYH-14" target="k189rI_YwZPAKSkOKAYH-1">
          <mxGeometry relative="1" as="geometry" />
        </mxCell>
        <mxCell id="k189rI_YwZPAKSkOKAYH-14" value="CPF" style="ellipse;whiteSpace=wrap;html=1;align=center;fontStyle=4;" vertex="1" parent="1">
          <mxGeometry x="465" y="150" width="100" height="40" as="geometry" />
        </mxCell>
        <mxCell id="k189rI_YwZPAKSkOKAYH-15" value="IdAluno" style="ellipse;whiteSpace=wrap;html=1;align=center;fontStyle=4;" vertex="1" parent="1">
          <mxGeometry x="510" y="190" width="100" height="40" as="geometry" />
        </mxCell>
        <mxCell id="k189rI_YwZPAKSkOKAYH-33" value="" style="edgeStyle=none;shape=connector;rounded=0;orthogonalLoop=1;jettySize=auto;html=1;labelBackgroundColor=default;strokeColor=default;fontFamily=Helvetica;fontSize=11;fontColor=default;endArrow=none;endFill=0;" edge="1" parent="1" source="k189rI_YwZPAKSkOKAYH-27" target="k189rI_YwZPAKSkOKAYH-30">
          <mxGeometry relative="1" as="geometry" />
        </mxCell>
        <mxCell id="k189rI_YwZPAKSkOKAYH-34" style="edgeStyle=none;shape=connector;rounded=0;orthogonalLoop=1;jettySize=auto;html=1;labelBackgroundColor=default;strokeColor=default;fontFamily=Helvetica;fontSize=11;fontColor=default;endArrow=none;endFill=0;" edge="1" parent="1" source="k189rI_YwZPAKSkOKAYH-27" target="k189rI_YwZPAKSkOKAYH-29">
          <mxGeometry relative="1" as="geometry" />
        </mxCell>
        <mxCell id="k189rI_YwZPAKSkOKAYH-74" style="edgeStyle=none;shape=connector;rounded=0;orthogonalLoop=1;jettySize=auto;html=1;labelBackgroundColor=default;strokeColor=default;fontFamily=Helvetica;fontSize=11;fontColor=default;endArrow=none;endFill=0;" edge="1" parent="1" source="k189rI_YwZPAKSkOKAYH-27" target="k189rI_YwZPAKSkOKAYH-73">
          <mxGeometry relative="1" as="geometry" />
        </mxCell>
        <mxCell id="k189rI_YwZPAKSkOKAYH-118" value="1" style="edgeLabel;html=1;align=center;verticalAlign=middle;resizable=0;points=[];fontSize=19;fontFamily=Helvetica;fontColor=default;fontStyle=1" vertex="1" connectable="0" parent="k189rI_YwZPAKSkOKAYH-74">
          <mxGeometry x="0.191" relative="1" as="geometry">
            <mxPoint as="offset" />
          </mxGeometry>
        </mxCell>
        <mxCell id="k189rI_YwZPAKSkOKAYH-123" style="edgeStyle=none;shape=connector;rounded=0;orthogonalLoop=1;jettySize=auto;html=1;exitX=0.25;exitY=0;exitDx=0;exitDy=0;entryX=0.75;entryY=0.667;entryDx=0;entryDy=0;entryPerimeter=0;labelBackgroundColor=default;strokeColor=default;fontFamily=Helvetica;fontSize=11;fontColor=default;endArrow=none;endFill=0;" edge="1" parent="1" source="k189rI_YwZPAKSkOKAYH-27" target="k189rI_YwZPAKSkOKAYH-67">
          <mxGeometry relative="1" as="geometry" />
        </mxCell>
        <mxCell id="k189rI_YwZPAKSkOKAYH-27" value="Departamento" style="whiteSpace=wrap;html=1;align=center;" vertex="1" parent="1">
          <mxGeometry x="760" y="320" width="100" height="40" as="geometry" />
        </mxCell>
        <mxCell id="k189rI_YwZPAKSkOKAYH-29" value="IdDepartamento" style="ellipse;whiteSpace=wrap;html=1;align=center;fontStyle=4;" vertex="1" parent="1">
          <mxGeometry x="790" y="200" width="100" height="40" as="geometry" />
        </mxCell>
        <mxCell id="k189rI_YwZPAKSkOKAYH-30" value="Nome" style="ellipse;whiteSpace=wrap;html=1;align=center;fontStyle=4;" vertex="1" parent="1">
          <mxGeometry x="830" y="260" width="100" height="40" as="geometry" />
        </mxCell>
        <mxCell id="k189rI_YwZPAKSkOKAYH-32" style="edgeStyle=none;shape=connector;rounded=0;orthogonalLoop=1;jettySize=auto;html=1;labelBackgroundColor=default;strokeColor=default;fontFamily=Helvetica;fontSize=11;fontColor=default;endArrow=none;endFill=0;" edge="1" parent="1" source="k189rI_YwZPAKSkOKAYH-31" target="k189rI_YwZPAKSkOKAYH-27">
          <mxGeometry relative="1" as="geometry" />
        </mxCell>
        <mxCell id="k189rI_YwZPAKSkOKAYH-31" value="Número Escritório" style="ellipse;whiteSpace=wrap;html=1;align=center;" vertex="1" parent="1">
          <mxGeometry x="830" y="420" width="100" height="40" as="geometry" />
        </mxCell>
        <mxCell id="k189rI_YwZPAKSkOKAYH-36" style="edgeStyle=none;shape=connector;rounded=0;orthogonalLoop=1;jettySize=auto;html=1;labelBackgroundColor=default;strokeColor=default;fontFamily=Helvetica;fontSize=11;fontColor=default;endArrow=none;endFill=0;" edge="1" parent="1" source="k189rI_YwZPAKSkOKAYH-35" target="k189rI_YwZPAKSkOKAYH-27">
          <mxGeometry relative="1" as="geometry" />
        </mxCell>
        <mxCell id="k189rI_YwZPAKSkOKAYH-35" value="Telefone Comercial" style="ellipse;whiteSpace=wrap;html=1;align=center;" vertex="1" parent="1">
          <mxGeometry x="870" y="370" width="100" height="40" as="geometry" />
        </mxCell>
        <mxCell id="k189rI_YwZPAKSkOKAYH-38" style="edgeStyle=none;shape=connector;rounded=0;orthogonalLoop=1;jettySize=auto;html=1;labelBackgroundColor=default;strokeColor=default;fontFamily=Helvetica;fontSize=11;fontColor=default;endArrow=none;endFill=0;" edge="1" parent="1" source="k189rI_YwZPAKSkOKAYH-37" target="k189rI_YwZPAKSkOKAYH-27">
          <mxGeometry relative="1" as="geometry" />
        </mxCell>
        <mxCell id="k189rI_YwZPAKSkOKAYH-37" value="Faculdade" style="ellipse;whiteSpace=wrap;html=1;align=center;" vertex="1" parent="1">
          <mxGeometry x="900" y="310" width="100" height="40" as="geometry" />
        </mxCell>
        <mxCell id="k189rI_YwZPAKSkOKAYH-39" value="Disciplina" style="whiteSpace=wrap;html=1;align=center;" vertex="1" parent="1">
          <mxGeometry x="690" y="580" width="100" height="40" as="geometry" />
        </mxCell>
        <mxCell id="k189rI_YwZPAKSkOKAYH-94" style="edgeStyle=none;shape=connector;rounded=0;orthogonalLoop=1;jettySize=auto;html=1;labelBackgroundColor=default;strokeColor=default;fontFamily=Helvetica;fontSize=11;fontColor=default;endArrow=none;endFill=0;" edge="1" parent="1" source="k189rI_YwZPAKSkOKAYH-40" target="k189rI_YwZPAKSkOKAYH-39">
          <mxGeometry relative="1" as="geometry" />
        </mxCell>
        <mxCell id="k189rI_YwZPAKSkOKAYH-95" style="edgeStyle=none;shape=connector;rounded=0;orthogonalLoop=1;jettySize=auto;html=1;labelBackgroundColor=default;strokeColor=default;fontFamily=Helvetica;fontSize=11;fontColor=default;endArrow=none;endFill=0;" edge="1" parent="1" source="k189rI_YwZPAKSkOKAYH-40" target="k189rI_YwZPAKSkOKAYH-89">
          <mxGeometry relative="1" as="geometry" />
        </mxCell>
        <mxCell id="k189rI_YwZPAKSkOKAYH-96" style="edgeStyle=none;shape=connector;rounded=0;orthogonalLoop=1;jettySize=auto;html=1;labelBackgroundColor=default;strokeColor=default;fontFamily=Helvetica;fontSize=11;fontColor=default;endArrow=none;endFill=0;" edge="1" parent="1" source="k189rI_YwZPAKSkOKAYH-40" target="k189rI_YwZPAKSkOKAYH-91">
          <mxGeometry relative="1" as="geometry" />
        </mxCell>
        <mxCell id="k189rI_YwZPAKSkOKAYH-97" style="edgeStyle=none;shape=connector;rounded=0;orthogonalLoop=1;jettySize=auto;html=1;labelBackgroundColor=default;strokeColor=default;fontFamily=Helvetica;fontSize=11;fontColor=default;endArrow=none;endFill=0;" edge="1" parent="1" source="k189rI_YwZPAKSkOKAYH-40" target="k189rI_YwZPAKSkOKAYH-93">
          <mxGeometry relative="1" as="geometry" />
        </mxCell>
        <mxCell id="k189rI_YwZPAKSkOKAYH-40" value="Identificação" style="ellipse;whiteSpace=wrap;html=1;align=center;fontStyle=4;" vertex="1" parent="1">
          <mxGeometry x="650" y="680" width="100" height="40" as="geometry" />
        </mxCell>
        <mxCell id="k189rI_YwZPAKSkOKAYH-44" style="edgeStyle=none;shape=connector;rounded=0;orthogonalLoop=1;jettySize=auto;html=1;labelBackgroundColor=default;strokeColor=default;fontFamily=Helvetica;fontSize=11;fontColor=default;endArrow=none;endFill=0;" edge="1" parent="1" source="k189rI_YwZPAKSkOKAYH-42" target="k189rI_YwZPAKSkOKAYH-39">
          <mxGeometry relative="1" as="geometry" />
        </mxCell>
        <mxCell id="k189rI_YwZPAKSkOKAYH-42" value="Nome" style="ellipse;whiteSpace=wrap;html=1;align=center;" vertex="1" parent="1">
          <mxGeometry x="790" y="685" width="100" height="40" as="geometry" />
        </mxCell>
        <mxCell id="k189rI_YwZPAKSkOKAYH-45" style="edgeStyle=none;shape=connector;rounded=0;orthogonalLoop=1;jettySize=auto;html=1;labelBackgroundColor=default;strokeColor=default;fontFamily=Helvetica;fontSize=11;fontColor=default;endArrow=none;endFill=0;" edge="1" parent="1" source="k189rI_YwZPAKSkOKAYH-43" target="k189rI_YwZPAKSkOKAYH-39">
          <mxGeometry relative="1" as="geometry" />
        </mxCell>
        <mxCell id="k189rI_YwZPAKSkOKAYH-43" value="Descrição" style="ellipse;whiteSpace=wrap;html=1;align=center;" vertex="1" parent="1">
          <mxGeometry x="800" y="630" width="100" height="40" as="geometry" />
        </mxCell>
        <mxCell id="k189rI_YwZPAKSkOKAYH-76" style="edgeStyle=none;shape=connector;rounded=0;orthogonalLoop=1;jettySize=auto;html=1;labelBackgroundColor=default;strokeColor=default;fontFamily=Helvetica;fontSize=11;fontColor=default;endArrow=none;endFill=0;" edge="1" parent="1" source="k189rI_YwZPAKSkOKAYH-46" target="k189rI_YwZPAKSkOKAYH-39">
          <mxGeometry relative="1" as="geometry" />
        </mxCell>
        <mxCell id="k189rI_YwZPAKSkOKAYH-46" value="Horas Por Semestre" style="ellipse;whiteSpace=wrap;html=1;align=center;" vertex="1" parent="1">
          <mxGeometry x="820" y="580" width="100" height="40" as="geometry" />
        </mxCell>
        <mxCell id="k189rI_YwZPAKSkOKAYH-48" style="edgeStyle=none;shape=connector;rounded=0;orthogonalLoop=1;jettySize=auto;html=1;labelBackgroundColor=default;strokeColor=default;fontFamily=Helvetica;fontSize=11;fontColor=default;endArrow=none;endFill=0;" edge="1" parent="1" source="k189rI_YwZPAKSkOKAYH-47" target="k189rI_YwZPAKSkOKAYH-39">
          <mxGeometry relative="1" as="geometry" />
        </mxCell>
        <mxCell id="k189rI_YwZPAKSkOKAYH-47" value="Nível" style="ellipse;whiteSpace=wrap;html=1;align=center;" vertex="1" parent="1">
          <mxGeometry x="790" y="520" width="100" height="40" as="geometry" />
        </mxCell>
        <mxCell id="k189rI_YwZPAKSkOKAYH-63" style="edgeStyle=none;shape=connector;rounded=0;orthogonalLoop=1;jettySize=auto;html=1;labelBackgroundColor=default;strokeColor=default;fontFamily=Helvetica;fontSize=11;fontColor=default;endArrow=none;endFill=0;" edge="1" parent="1" source="k189rI_YwZPAKSkOKAYH-52" target="k189rI_YwZPAKSkOKAYH-60">
          <mxGeometry relative="1" as="geometry" />
        </mxCell>
        <mxCell id="k189rI_YwZPAKSkOKAYH-52" value="Professor" style="ellipse;whiteSpace=wrap;html=1;align=center;" vertex="1" parent="1">
          <mxGeometry x="250" y="600" width="100" height="40" as="geometry" />
        </mxCell>
        <mxCell id="k189rI_YwZPAKSkOKAYH-64" style="edgeStyle=none;shape=connector;rounded=0;orthogonalLoop=1;jettySize=auto;html=1;labelBackgroundColor=default;strokeColor=default;fontFamily=Helvetica;fontSize=11;fontColor=default;endArrow=none;endFill=0;" edge="1" parent="1" source="k189rI_YwZPAKSkOKAYH-53" target="k189rI_YwZPAKSkOKAYH-60">
          <mxGeometry relative="1" as="geometry" />
        </mxCell>
        <mxCell id="k189rI_YwZPAKSkOKAYH-53" value="Semestre" style="ellipse;whiteSpace=wrap;html=1;align=center;" vertex="1" parent="1">
          <mxGeometry x="200" y="660" width="100" height="40" as="geometry" />
        </mxCell>
        <mxCell id="k189rI_YwZPAKSkOKAYH-65" style="edgeStyle=none;shape=connector;rounded=0;orthogonalLoop=1;jettySize=auto;html=1;labelBackgroundColor=default;strokeColor=default;fontFamily=Helvetica;fontSize=11;fontColor=default;endArrow=none;endFill=0;" edge="1" parent="1" source="k189rI_YwZPAKSkOKAYH-54" target="k189rI_YwZPAKSkOKAYH-60">
          <mxGeometry relative="1" as="geometry" />
        </mxCell>
        <mxCell id="k189rI_YwZPAKSkOKAYH-54" value="Ano" style="ellipse;whiteSpace=wrap;html=1;align=center;" vertex="1" parent="1">
          <mxGeometry x="230" y="720" width="100" height="40" as="geometry" />
        </mxCell>
        <mxCell id="k189rI_YwZPAKSkOKAYH-66" style="edgeStyle=none;shape=connector;rounded=0;orthogonalLoop=1;jettySize=auto;html=1;labelBackgroundColor=default;strokeColor=default;fontFamily=Helvetica;fontSize=11;fontColor=default;endArrow=none;endFill=0;" edge="1" parent="1" source="k189rI_YwZPAKSkOKAYH-56" target="k189rI_YwZPAKSkOKAYH-60">
          <mxGeometry relative="1" as="geometry" />
        </mxCell>
        <mxCell id="k189rI_YwZPAKSkOKAYH-56" value="IdTurma" style="ellipse;whiteSpace=wrap;html=1;align=center;fontStyle=4;" vertex="1" parent="1">
          <mxGeometry x="350" y="740" width="100" height="40" as="geometry" />
        </mxCell>
        <mxCell id="k189rI_YwZPAKSkOKAYH-58" value="Nota" style="whiteSpace=wrap;html=1;align=center;" vertex="1" parent="1">
          <mxGeometry x="225" y="470" width="100" height="40" as="geometry" />
        </mxCell>
        <mxCell id="k189rI_YwZPAKSkOKAYH-62" style="edgeStyle=none;shape=connector;rounded=0;orthogonalLoop=1;jettySize=auto;html=1;labelBackgroundColor=default;strokeColor=default;fontFamily=Helvetica;fontSize=11;fontColor=default;endArrow=none;endFill=0;" edge="1" parent="1" source="k189rI_YwZPAKSkOKAYH-59" target="k189rI_YwZPAKSkOKAYH-58">
          <mxGeometry relative="1" as="geometry" />
        </mxCell>
        <mxCell id="k189rI_YwZPAKSkOKAYH-59" value="Nota" style="ellipse;whiteSpace=wrap;html=1;align=center;" vertex="1" parent="1">
          <mxGeometry x="90" y="460" width="100" height="40" as="geometry" />
        </mxCell>
        <mxCell id="k189rI_YwZPAKSkOKAYH-85" value="1" style="edgeStyle=none;shape=connector;rounded=0;orthogonalLoop=1;jettySize=auto;html=1;labelBackgroundColor=default;strokeColor=default;fontFamily=Helvetica;fontSize=19;fontColor=default;endArrow=none;endFill=0;strokeWidth=1;fontStyle=1" edge="1" parent="1" source="k189rI_YwZPAKSkOKAYH-88" target="k189rI_YwZPAKSkOKAYH-39">
          <mxGeometry relative="1" as="geometry">
            <mxPoint x="610.8" y="630.4000000000001" as="sourcePoint" />
          </mxGeometry>
        </mxCell>
        <mxCell id="k189rI_YwZPAKSkOKAYH-60" value="Turma" style="shape=ext;margin=3;double=1;whiteSpace=wrap;html=1;align=center;fontFamily=Helvetica;fontSize=11;fontColor=default;" vertex="1" parent="1">
          <mxGeometry x="370" y="660" width="100" height="40" as="geometry" />
        </mxCell>
        <mxCell id="k189rI_YwZPAKSkOKAYH-69" style="edgeStyle=none;shape=connector;rounded=0;orthogonalLoop=1;jettySize=auto;html=1;labelBackgroundColor=default;strokeColor=default;fontFamily=Helvetica;fontSize=11;fontColor=default;endArrow=none;endFill=0;" edge="1" parent="1" source="k189rI_YwZPAKSkOKAYH-67" target="k189rI_YwZPAKSkOKAYH-27">
          <mxGeometry relative="1" as="geometry" />
        </mxCell>
        <mxCell id="k189rI_YwZPAKSkOKAYH-120" value="1" style="edgeLabel;html=1;align=center;verticalAlign=middle;resizable=0;points=[];fontSize=20;fontFamily=Helvetica;fontColor=default;fontStyle=1" vertex="1" connectable="0" parent="k189rI_YwZPAKSkOKAYH-69">
          <mxGeometry x="0.0671" y="2" relative="1" as="geometry">
            <mxPoint as="offset" />
          </mxGeometry>
        </mxCell>
        <mxCell id="k189rI_YwZPAKSkOKAYH-67" value="Registro Principal" style="shape=rhombus;perimeter=rhombusPerimeter;whiteSpace=wrap;html=1;align=center;fontFamily=Helvetica;fontSize=11;fontColor=default;" vertex="1" parent="1">
          <mxGeometry x="590" y="220" width="120" height="60" as="geometry" />
        </mxCell>
        <mxCell id="k189rI_YwZPAKSkOKAYH-72" style="edgeStyle=none;shape=connector;rounded=0;orthogonalLoop=1;jettySize=auto;html=1;labelBackgroundColor=default;strokeColor=default;fontFamily=Helvetica;fontSize=11;fontColor=default;endArrow=none;endFill=0;" edge="1" parent="1" source="k189rI_YwZPAKSkOKAYH-70" target="k189rI_YwZPAKSkOKAYH-27">
          <mxGeometry relative="1" as="geometry">
            <Array as="points" />
          </mxGeometry>
        </mxCell>
        <mxCell id="k189rI_YwZPAKSkOKAYH-122" value="1" style="edgeLabel;html=1;align=center;verticalAlign=middle;resizable=0;points=[];fontSize=19;fontFamily=Helvetica;fontColor=default;fontStyle=1" vertex="1" connectable="0" parent="k189rI_YwZPAKSkOKAYH-72">
          <mxGeometry x="0.2457" relative="1" as="geometry">
            <mxPoint as="offset" />
          </mxGeometry>
        </mxCell>
        <mxCell id="k189rI_YwZPAKSkOKAYH-70" value="Registro Secundário" style="shape=rhombus;perimeter=rhombusPerimeter;whiteSpace=wrap;html=1;align=center;fontFamily=Helvetica;fontSize=11;fontColor=default;" vertex="1" parent="1">
          <mxGeometry x="560" y="330" width="120" height="60" as="geometry" />
        </mxCell>
        <mxCell id="k189rI_YwZPAKSkOKAYH-75" style="edgeStyle=none;shape=connector;rounded=0;orthogonalLoop=1;jettySize=auto;html=1;labelBackgroundColor=default;strokeColor=default;fontFamily=Helvetica;fontSize=11;fontColor=default;endArrow=none;endFill=0;" edge="1" parent="1" source="k189rI_YwZPAKSkOKAYH-73" target="k189rI_YwZPAKSkOKAYH-39">
          <mxGeometry relative="1" as="geometry" />
        </mxCell>
        <mxCell id="k189rI_YwZPAKSkOKAYH-119" value="N" style="edgeLabel;html=1;align=center;verticalAlign=middle;resizable=0;points=[];fontSize=19;fontFamily=Helvetica;fontColor=default;fontStyle=1" vertex="1" connectable="0" parent="k189rI_YwZPAKSkOKAYH-75">
          <mxGeometry x="-0.0361" y="-2" relative="1" as="geometry">
            <mxPoint as="offset" />
          </mxGeometry>
        </mxCell>
        <mxCell id="k189rI_YwZPAKSkOKAYH-73" value="Oferece" style="shape=rhombus;perimeter=rhombusPerimeter;whiteSpace=wrap;html=1;align=center;fontFamily=Helvetica;fontSize=11;fontColor=default;" vertex="1" parent="1">
          <mxGeometry x="680" y="430" width="120" height="60" as="geometry" />
        </mxCell>
        <mxCell id="k189rI_YwZPAKSkOKAYH-83" style="edgeStyle=none;shape=connector;rounded=0;orthogonalLoop=1;jettySize=auto;html=1;labelBackgroundColor=default;strokeColor=default;fontFamily=Helvetica;fontSize=11;fontColor=default;endArrow=none;endFill=0;" edge="1" parent="1" source="k189rI_YwZPAKSkOKAYH-81" target="k189rI_YwZPAKSkOKAYH-58">
          <mxGeometry relative="1" as="geometry" />
        </mxCell>
        <mxCell id="k189rI_YwZPAKSkOKAYH-98" value="N" style="edgeStyle=none;shape=connector;rounded=0;orthogonalLoop=1;jettySize=auto;html=1;labelBackgroundColor=default;strokeColor=default;fontFamily=Helvetica;fontSize=19;fontColor=default;endArrow=none;endFill=0;fontStyle=1" edge="1" parent="1" source="k189rI_YwZPAKSkOKAYH-81" target="k189rI_YwZPAKSkOKAYH-58">
          <mxGeometry relative="1" as="geometry" />
        </mxCell>
        <mxCell id="k189rI_YwZPAKSkOKAYH-101" value="1" style="edgeStyle=none;shape=connector;rounded=0;orthogonalLoop=1;jettySize=auto;html=1;labelBackgroundColor=default;strokeColor=default;fontFamily=Helvetica;fontSize=19;fontColor=default;endArrow=none;endFill=0;fontStyle=1" edge="1" parent="1" source="k189rI_YwZPAKSkOKAYH-81" target="k189rI_YwZPAKSkOKAYH-60">
          <mxGeometry relative="1" as="geometry" />
        </mxCell>
        <mxCell id="k189rI_YwZPAKSkOKAYH-81" value="Tem" style="shape=rhombus;perimeter=rhombusPerimeter;whiteSpace=wrap;html=1;align=center;fontFamily=Helvetica;fontSize=11;fontColor=default;" vertex="1" parent="1">
          <mxGeometry x="340" y="530" width="120" height="60" as="geometry" />
        </mxCell>
        <mxCell id="k189rI_YwZPAKSkOKAYH-87" style="edgeStyle=none;shape=connector;rounded=0;orthogonalLoop=1;jettySize=auto;html=1;labelBackgroundColor=default;strokeColor=default;fontFamily=Helvetica;fontSize=11;fontColor=default;endArrow=none;endFill=0;" edge="1" parent="1" source="k189rI_YwZPAKSkOKAYH-88" target="k189rI_YwZPAKSkOKAYH-60">
          <mxGeometry relative="1" as="geometry">
            <mxPoint x="530.8695652173913" y="650.4347826086955" as="sourcePoint" />
          </mxGeometry>
        </mxCell>
        <mxCell id="k189rI_YwZPAKSkOKAYH-125" value="N" style="edgeLabel;html=1;align=center;verticalAlign=middle;resizable=0;points=[];fontSize=19;fontFamily=Helvetica;fontColor=default;fontStyle=1" vertex="1" connectable="0" parent="k189rI_YwZPAKSkOKAYH-87">
          <mxGeometry x="-0.2802" y="1" relative="1" as="geometry">
            <mxPoint as="offset" />
          </mxGeometry>
        </mxCell>
        <mxCell id="k189rI_YwZPAKSkOKAYH-88" value="Oferece" style="shape=rhombus;double=1;perimeter=rhombusPerimeter;whiteSpace=wrap;html=1;align=center;fontFamily=Helvetica;fontSize=11;fontColor=default;" vertex="1" parent="1">
          <mxGeometry x="510" y="620" width="120" height="60" as="geometry" />
        </mxCell>
        <mxCell id="k189rI_YwZPAKSkOKAYH-89" value="Ano" style="ellipse;whiteSpace=wrap;html=1;align=center;" vertex="1" parent="1">
          <mxGeometry x="560" y="715" width="100" height="40" as="geometry" />
        </mxCell>
        <mxCell id="k189rI_YwZPAKSkOKAYH-91" value="Semestre" style="ellipse;whiteSpace=wrap;html=1;align=center;" vertex="1" parent="1">
          <mxGeometry x="620" y="755" width="100" height="40" as="geometry" />
        </mxCell>
        <mxCell id="k189rI_YwZPAKSkOKAYH-93" value="IdDisciplina" style="ellipse;whiteSpace=wrap;html=1;align=center;" vertex="1" parent="1">
          <mxGeometry x="730" y="740" width="100" height="40" as="geometry" />
        </mxCell>
        <mxCell id="k189rI_YwZPAKSkOKAYH-100" style="edgeStyle=none;shape=connector;rounded=0;orthogonalLoop=1;jettySize=auto;html=1;labelBackgroundColor=default;strokeColor=default;fontFamily=Helvetica;fontSize=11;fontColor=default;endArrow=none;endFill=0;" edge="1" parent="1" source="k189rI_YwZPAKSkOKAYH-99" target="k189rI_YwZPAKSkOKAYH-58">
          <mxGeometry relative="1" as="geometry" />
        </mxCell>
        <mxCell id="k189rI_YwZPAKSkOKAYH-99" value="Obtém" style="shape=rhombus;perimeter=rhombusPerimeter;whiteSpace=wrap;html=1;align=center;fontFamily=Helvetica;fontSize=11;fontColor=default;" vertex="1" parent="1">
          <mxGeometry x="355" y="380" width="120" height="60" as="geometry" />
        </mxCell>
        <mxCell id="k189rI_YwZPAKSkOKAYH-103" style="edgeStyle=none;shape=connector;rounded=0;orthogonalLoop=1;jettySize=auto;html=1;labelBackgroundColor=default;strokeColor=default;fontFamily=Helvetica;fontSize=11;fontColor=default;endArrow=none;endFill=0;" edge="1" parent="1" source="k189rI_YwZPAKSkOKAYH-102" target="k189rI_YwZPAKSkOKAYH-58">
          <mxGeometry relative="1" as="geometry" />
        </mxCell>
        <mxCell id="k189rI_YwZPAKSkOKAYH-102" value="IdNota" style="ellipse;whiteSpace=wrap;html=1;align=center;fontStyle=4;" vertex="1" parent="1">
          <mxGeometry x="110" y="540" width="100" height="40" as="geometry" />
        </mxCell>
        <mxCell id="k189rI_YwZPAKSkOKAYH-105" style="edgeStyle=none;shape=connector;rounded=0;orthogonalLoop=1;jettySize=auto;html=1;labelBackgroundColor=default;strokeColor=default;fontFamily=Helvetica;fontSize=11;fontColor=default;endArrow=none;endFill=0;" edge="1" parent="1" source="k189rI_YwZPAKSkOKAYH-104" target="k189rI_YwZPAKSkOKAYH-1">
          <mxGeometry relative="1" as="geometry" />
        </mxCell>
        <mxCell id="k189rI_YwZPAKSkOKAYH-104" value="Data Nascimento" style="ellipse;whiteSpace=wrap;html=1;align=center;" vertex="1" parent="1">
          <mxGeometry x="170" y="160" width="100" height="40" as="geometry" />
        </mxCell>
        <mxCell id="k189rI_YwZPAKSkOKAYH-110" style="edgeStyle=none;shape=connector;rounded=0;orthogonalLoop=1;jettySize=auto;html=1;labelBackgroundColor=default;strokeColor=default;fontFamily=Helvetica;fontSize=11;fontColor=default;endArrow=none;endFill=0;" edge="1" parent="1" source="k189rI_YwZPAKSkOKAYH-106" target="k189rI_YwZPAKSkOKAYH-2">
          <mxGeometry relative="1" as="geometry" />
        </mxCell>
        <mxCell id="k189rI_YwZPAKSkOKAYH-106" value="Primeiro Nome" style="ellipse;whiteSpace=wrap;html=1;align=center;" vertex="1" parent="1">
          <mxGeometry x="125" y="90" width="100" height="40" as="geometry" />
        </mxCell>
        <mxCell id="k189rI_YwZPAKSkOKAYH-108" style="edgeStyle=none;shape=connector;rounded=0;orthogonalLoop=1;jettySize=auto;html=1;labelBackgroundColor=default;strokeColor=default;fontFamily=Helvetica;fontSize=11;fontColor=default;endArrow=none;endFill=0;" edge="1" parent="1" source="k189rI_YwZPAKSkOKAYH-107" target="k189rI_YwZPAKSkOKAYH-1">
          <mxGeometry relative="1" as="geometry" />
        </mxCell>
        <mxCell id="k189rI_YwZPAKSkOKAYH-107" value="Gênero" style="ellipse;whiteSpace=wrap;html=1;align=center;" vertex="1" parent="1">
          <mxGeometry x="210" y="320" width="100" height="40" as="geometry" />
        </mxCell>
        <mxCell id="k189rI_YwZPAKSkOKAYH-112" style="edgeStyle=none;shape=connector;rounded=0;orthogonalLoop=1;jettySize=auto;html=1;labelBackgroundColor=default;strokeColor=default;fontFamily=Helvetica;fontSize=11;fontColor=default;endArrow=none;endFill=0;" edge="1" parent="1" source="k189rI_YwZPAKSkOKAYH-111" target="k189rI_YwZPAKSkOKAYH-2">
          <mxGeometry relative="1" as="geometry" />
        </mxCell>
        <mxCell id="k189rI_YwZPAKSkOKAYH-111" value="Sobrenome" style="ellipse;whiteSpace=wrap;html=1;align=center;" vertex="1" parent="1">
          <mxGeometry x="230" y="90" width="100" height="40" as="geometry" />
        </mxCell>
        <mxCell id="k189rI_YwZPAKSkOKAYH-115" style="edgeStyle=none;shape=connector;rounded=0;orthogonalLoop=1;jettySize=auto;html=1;labelBackgroundColor=default;strokeColor=default;fontFamily=Helvetica;fontSize=11;fontColor=default;endArrow=none;endFill=0;" edge="1" parent="1" source="k189rI_YwZPAKSkOKAYH-114" target="k189rI_YwZPAKSkOKAYH-1">
          <mxGeometry relative="1" as="geometry" />
        </mxCell>
        <mxCell id="k189rI_YwZPAKSkOKAYH-114" value="Formação" style="ellipse;shape=doubleEllipse;margin=3;whiteSpace=wrap;html=1;align=center;fontFamily=Helvetica;fontSize=11;fontColor=default;" vertex="1" parent="1">
          <mxGeometry x="430" y="60" width="100" height="40" as="geometry" />
        </mxCell>
        <mxCell id="k189rI_YwZPAKSkOKAYH-127" value="N" style="text;html=1;align=center;verticalAlign=middle;resizable=0;points=[];autosize=1;strokeColor=none;fillColor=none;fontSize=19;fontFamily=Helvetica;fontColor=default;fontStyle=1" vertex="1" parent="1">
          <mxGeometry x="320" y="433" width="40" height="40" as="geometry" />
        </mxCell>
        <mxCell id="k189rI_YwZPAKSkOKAYH-129" value="Aluno" style="shape=table;startSize=30;container=1;collapsible=1;childLayout=tableLayout;fixedRows=1;rowLines=0;fontStyle=1;align=center;resizeLast=1;html=1;fontFamily=Helvetica;fontSize=11;fontColor=default;" vertex="1" parent="1">
          <mxGeometry x="400" y="980" width="180" height="150" as="geometry" />
        </mxCell>
        <mxCell id="k189rI_YwZPAKSkOKAYH-130" value="" style="shape=tableRow;horizontal=0;startSize=0;swimlaneHead=0;swimlaneBody=0;fillColor=none;collapsible=0;dropTarget=0;points=[[0,0.5],[1,0.5]];portConstraint=eastwest;top=0;left=0;right=0;bottom=1;fontFamily=Helvetica;fontSize=11;fontColor=default;" vertex="1" parent="k189rI_YwZPAKSkOKAYH-129">
          <mxGeometry y="30" width="180" height="30" as="geometry" />
        </mxCell>
        <mxCell id="k189rI_YwZPAKSkOKAYH-131" value="PK" style="shape=partialRectangle;connectable=0;fillColor=none;top=0;left=0;bottom=0;right=0;fontStyle=1;overflow=hidden;whiteSpace=wrap;html=1;fontFamily=Helvetica;fontSize=11;fontColor=default;" vertex="1" parent="k189rI_YwZPAKSkOKAYH-130">
          <mxGeometry width="30" height="30" as="geometry">
            <mxRectangle width="30" height="30" as="alternateBounds" />
          </mxGeometry>
        </mxCell>
        <mxCell id="k189rI_YwZPAKSkOKAYH-132" value="IdAluno" style="shape=partialRectangle;connectable=0;fillColor=none;top=0;left=0;bottom=0;right=0;align=left;spacingLeft=6;fontStyle=5;overflow=hidden;whiteSpace=wrap;html=1;fontFamily=Helvetica;fontSize=11;fontColor=default;" vertex="1" parent="k189rI_YwZPAKSkOKAYH-130">
          <mxGeometry x="30" width="150" height="30" as="geometry">
            <mxRectangle width="150" height="30" as="alternateBounds" />
          </mxGeometry>
        </mxCell>
        <mxCell id="k189rI_YwZPAKSkOKAYH-133" value="" style="shape=tableRow;horizontal=0;startSize=0;swimlaneHead=0;swimlaneBody=0;fillColor=none;collapsible=0;dropTarget=0;points=[[0,0.5],[1,0.5]];portConstraint=eastwest;top=0;left=0;right=0;bottom=0;fontFamily=Helvetica;fontSize=11;fontColor=default;" vertex="1" parent="k189rI_YwZPAKSkOKAYH-129">
          <mxGeometry y="60" width="180" height="30" as="geometry" />
        </mxCell>
        <mxCell id="k189rI_YwZPAKSkOKAYH-134" value="&lt;span style=&quot;font-weight: normal;&quot;&gt;FK&lt;/span&gt;" style="shape=partialRectangle;connectable=0;fillColor=none;top=0;left=0;bottom=0;right=0;editable=1;overflow=hidden;whiteSpace=wrap;html=1;fontFamily=Helvetica;fontSize=11;fontColor=default;fontStyle=1" vertex="1" parent="k189rI_YwZPAKSkOKAYH-133">
          <mxGeometry width="30" height="30" as="geometry">
            <mxRectangle width="30" height="30" as="alternateBounds" />
          </mxGeometry>
        </mxCell>
        <mxCell id="k189rI_YwZPAKSkOKAYH-135" value="&lt;span style=&quot;font-weight: normal;&quot;&gt;IdDepartamentoPrincipal&lt;/span&gt;" style="shape=partialRectangle;connectable=0;fillColor=none;top=0;left=0;bottom=0;right=0;align=left;spacingLeft=6;overflow=hidden;whiteSpace=wrap;html=1;fontFamily=Helvetica;fontSize=11;fontColor=default;fontStyle=1" vertex="1" parent="k189rI_YwZPAKSkOKAYH-133">
          <mxGeometry x="30" width="150" height="30" as="geometry">
            <mxRectangle width="150" height="30" as="alternateBounds" />
          </mxGeometry>
        </mxCell>
        <mxCell id="k189rI_YwZPAKSkOKAYH-136" value="" style="shape=tableRow;horizontal=0;startSize=0;swimlaneHead=0;swimlaneBody=0;fillColor=none;collapsible=0;dropTarget=0;points=[[0,0.5],[1,0.5]];portConstraint=eastwest;top=0;left=0;right=0;bottom=0;fontFamily=Helvetica;fontSize=11;fontColor=default;" vertex="1" parent="k189rI_YwZPAKSkOKAYH-129">
          <mxGeometry y="90" width="180" height="30" as="geometry" />
        </mxCell>
        <mxCell id="k189rI_YwZPAKSkOKAYH-137" value="FK" style="shape=partialRectangle;connectable=0;fillColor=none;top=0;left=0;bottom=0;right=0;editable=1;overflow=hidden;whiteSpace=wrap;html=1;fontFamily=Helvetica;fontSize=11;fontColor=default;" vertex="1" parent="k189rI_YwZPAKSkOKAYH-136">
          <mxGeometry width="30" height="30" as="geometry">
            <mxRectangle width="30" height="30" as="alternateBounds" />
          </mxGeometry>
        </mxCell>
        <mxCell id="k189rI_YwZPAKSkOKAYH-138" value="IdDepartamentoSecundário" style="shape=partialRectangle;connectable=0;fillColor=none;top=0;left=0;bottom=0;right=0;align=left;spacingLeft=6;overflow=hidden;whiteSpace=wrap;html=1;fontFamily=Helvetica;fontSize=11;fontColor=default;" vertex="1" parent="k189rI_YwZPAKSkOKAYH-136">
          <mxGeometry x="30" width="150" height="30" as="geometry">
            <mxRectangle width="150" height="30" as="alternateBounds" />
          </mxGeometry>
        </mxCell>
        <mxCell id="k189rI_YwZPAKSkOKAYH-139" value="" style="shape=tableRow;horizontal=0;startSize=0;swimlaneHead=0;swimlaneBody=0;fillColor=none;collapsible=0;dropTarget=0;points=[[0,0.5],[1,0.5]];portConstraint=eastwest;top=0;left=0;right=0;bottom=0;fontFamily=Helvetica;fontSize=11;fontColor=default;" vertex="1" parent="k189rI_YwZPAKSkOKAYH-129">
          <mxGeometry y="120" width="180" height="30" as="geometry" />
        </mxCell>
        <mxCell id="k189rI_YwZPAKSkOKAYH-140" value="" style="shape=partialRectangle;connectable=0;fillColor=none;top=0;left=0;bottom=0;right=0;editable=1;overflow=hidden;whiteSpace=wrap;html=1;fontFamily=Helvetica;fontSize=11;fontColor=default;" vertex="1" parent="k189rI_YwZPAKSkOKAYH-139">
          <mxGeometry width="30" height="30" as="geometry">
            <mxRectangle width="30" height="30" as="alternateBounds" />
          </mxGeometry>
        </mxCell>
        <mxCell id="k189rI_YwZPAKSkOKAYH-141" value="[...]" style="shape=partialRectangle;connectable=0;fillColor=none;top=0;left=0;bottom=0;right=0;align=left;spacingLeft=6;overflow=hidden;whiteSpace=wrap;html=1;fontFamily=Helvetica;fontSize=11;fontColor=default;" vertex="1" parent="k189rI_YwZPAKSkOKAYH-139">
          <mxGeometry x="30" width="150" height="30" as="geometry">
            <mxRectangle width="150" height="30" as="alternateBounds" />
          </mxGeometry>
        </mxCell>
        <mxCell id="k189rI_YwZPAKSkOKAYH-142" value="Departamento" style="shape=table;startSize=30;container=1;collapsible=1;childLayout=tableLayout;fixedRows=1;rowLines=0;fontStyle=1;align=center;resizeLast=1;html=1;fontFamily=Helvetica;fontSize=11;fontColor=default;" vertex="1" parent="1">
          <mxGeometry x="685" y="1010" width="180" height="80" as="geometry" />
        </mxCell>
        <mxCell id="k189rI_YwZPAKSkOKAYH-143" value="" style="shape=tableRow;horizontal=0;startSize=0;swimlaneHead=0;swimlaneBody=0;fillColor=none;collapsible=0;dropTarget=0;points=[[0,0.5],[1,0.5]];portConstraint=eastwest;top=0;left=0;right=0;bottom=1;fontFamily=Helvetica;fontSize=11;fontColor=default;" vertex="1" parent="k189rI_YwZPAKSkOKAYH-142">
          <mxGeometry y="30" width="180" height="30" as="geometry" />
        </mxCell>
        <mxCell id="k189rI_YwZPAKSkOKAYH-144" value="PK" style="shape=partialRectangle;connectable=0;fillColor=none;top=0;left=0;bottom=0;right=0;fontStyle=1;overflow=hidden;whiteSpace=wrap;html=1;fontFamily=Helvetica;fontSize=11;fontColor=default;" vertex="1" parent="k189rI_YwZPAKSkOKAYH-143">
          <mxGeometry width="30" height="30" as="geometry">
            <mxRectangle width="30" height="30" as="alternateBounds" />
          </mxGeometry>
        </mxCell>
        <mxCell id="k189rI_YwZPAKSkOKAYH-145" value="IdDepartamento" style="shape=partialRectangle;connectable=0;fillColor=none;top=0;left=0;bottom=0;right=0;align=left;spacingLeft=6;fontStyle=5;overflow=hidden;whiteSpace=wrap;html=1;fontFamily=Helvetica;fontSize=11;fontColor=default;" vertex="1" parent="k189rI_YwZPAKSkOKAYH-143">
          <mxGeometry x="30" width="150" height="30" as="geometry">
            <mxRectangle width="150" height="30" as="alternateBounds" />
          </mxGeometry>
        </mxCell>
        <mxCell id="k189rI_YwZPAKSkOKAYH-152" value="" style="shape=tableRow;horizontal=0;startSize=0;swimlaneHead=0;swimlaneBody=0;fillColor=none;collapsible=0;dropTarget=0;points=[[0,0.5],[1,0.5]];portConstraint=eastwest;top=0;left=0;right=0;bottom=0;fontFamily=Helvetica;fontSize=11;fontColor=default;" vertex="1" parent="k189rI_YwZPAKSkOKAYH-142">
          <mxGeometry y="60" width="180" height="20" as="geometry" />
        </mxCell>
        <mxCell id="k189rI_YwZPAKSkOKAYH-153" value="" style="shape=partialRectangle;connectable=0;fillColor=none;top=0;left=0;bottom=0;right=0;editable=1;overflow=hidden;whiteSpace=wrap;html=1;fontFamily=Helvetica;fontSize=11;fontColor=default;" vertex="1" parent="k189rI_YwZPAKSkOKAYH-152">
          <mxGeometry width="30" height="20" as="geometry">
            <mxRectangle width="30" height="20" as="alternateBounds" />
          </mxGeometry>
        </mxCell>
        <mxCell id="k189rI_YwZPAKSkOKAYH-154" value="[...]" style="shape=partialRectangle;connectable=0;fillColor=none;top=0;left=0;bottom=0;right=0;align=left;spacingLeft=6;overflow=hidden;whiteSpace=wrap;html=1;fontFamily=Helvetica;fontSize=11;fontColor=default;" vertex="1" parent="k189rI_YwZPAKSkOKAYH-152">
          <mxGeometry x="30" width="150" height="20" as="geometry">
            <mxRectangle width="150" height="20" as="alternateBounds" />
          </mxGeometry>
        </mxCell>
        <mxCell id="k189rI_YwZPAKSkOKAYH-207" style="edgeStyle=orthogonalEdgeStyle;shape=connector;rounded=0;orthogonalLoop=1;jettySize=auto;html=1;labelBackgroundColor=default;strokeColor=default;fontFamily=Helvetica;fontSize=11;fontColor=default;endArrow=classic;endFill=1;entryX=1;entryY=0.5;entryDx=0;entryDy=0;" edge="1" parent="1" source="k189rI_YwZPAKSkOKAYH-155" target="k189rI_YwZPAKSkOKAYH-199">
          <mxGeometry relative="1" as="geometry" />
        </mxCell>
        <mxCell id="k189rI_YwZPAKSkOKAYH-155" value="Disciplina" style="shape=table;startSize=30;container=1;collapsible=1;childLayout=tableLayout;fixedRows=1;rowLines=0;fontStyle=1;align=center;resizeLast=1;html=1;fontFamily=Helvetica;fontSize=11;fontColor=default;" vertex="1" parent="1">
          <mxGeometry x="800" y="1351" width="180" height="90" as="geometry" />
        </mxCell>
        <mxCell id="k189rI_YwZPAKSkOKAYH-156" value="" style="shape=tableRow;horizontal=0;startSize=0;swimlaneHead=0;swimlaneBody=0;fillColor=none;collapsible=0;dropTarget=0;points=[[0,0.5],[1,0.5]];portConstraint=eastwest;top=0;left=0;right=0;bottom=1;fontFamily=Helvetica;fontSize=11;fontColor=default;" vertex="1" parent="k189rI_YwZPAKSkOKAYH-155">
          <mxGeometry y="30" width="180" height="30" as="geometry" />
        </mxCell>
        <mxCell id="k189rI_YwZPAKSkOKAYH-157" value="PK" style="shape=partialRectangle;connectable=0;fillColor=none;top=0;left=0;bottom=0;right=0;fontStyle=1;overflow=hidden;whiteSpace=wrap;html=1;fontFamily=Helvetica;fontSize=11;fontColor=default;" vertex="1" parent="k189rI_YwZPAKSkOKAYH-156">
          <mxGeometry width="30" height="30" as="geometry">
            <mxRectangle width="30" height="30" as="alternateBounds" />
          </mxGeometry>
        </mxCell>
        <mxCell id="k189rI_YwZPAKSkOKAYH-158" value="IdDisciplina" style="shape=partialRectangle;connectable=0;fillColor=none;top=0;left=0;bottom=0;right=0;align=left;spacingLeft=6;fontStyle=5;overflow=hidden;whiteSpace=wrap;html=1;fontFamily=Helvetica;fontSize=11;fontColor=default;" vertex="1" parent="k189rI_YwZPAKSkOKAYH-156">
          <mxGeometry x="30" width="150" height="30" as="geometry">
            <mxRectangle width="150" height="30" as="alternateBounds" />
          </mxGeometry>
        </mxCell>
        <mxCell id="k189rI_YwZPAKSkOKAYH-159" value="" style="shape=tableRow;horizontal=0;startSize=0;swimlaneHead=0;swimlaneBody=0;fillColor=none;collapsible=0;dropTarget=0;points=[[0,0.5],[1,0.5]];portConstraint=eastwest;top=0;left=0;right=0;bottom=0;fontFamily=Helvetica;fontSize=11;fontColor=default;" vertex="1" parent="k189rI_YwZPAKSkOKAYH-155">
          <mxGeometry y="60" width="180" height="30" as="geometry" />
        </mxCell>
        <mxCell id="k189rI_YwZPAKSkOKAYH-160" value="" style="shape=partialRectangle;connectable=0;fillColor=none;top=0;left=0;bottom=0;right=0;editable=1;overflow=hidden;whiteSpace=wrap;html=1;fontFamily=Helvetica;fontSize=11;fontColor=default;" vertex="1" parent="k189rI_YwZPAKSkOKAYH-159">
          <mxGeometry width="30" height="30" as="geometry">
            <mxRectangle width="30" height="30" as="alternateBounds" />
          </mxGeometry>
        </mxCell>
        <mxCell id="k189rI_YwZPAKSkOKAYH-161" value="[..]" style="shape=partialRectangle;connectable=0;fillColor=none;top=0;left=0;bottom=0;right=0;align=left;spacingLeft=6;overflow=hidden;whiteSpace=wrap;html=1;fontFamily=Helvetica;fontSize=11;fontColor=default;" vertex="1" parent="k189rI_YwZPAKSkOKAYH-159">
          <mxGeometry x="30" width="150" height="30" as="geometry">
            <mxRectangle width="150" height="30" as="alternateBounds" />
          </mxGeometry>
        </mxCell>
        <mxCell id="k189rI_YwZPAKSkOKAYH-203" style="edgeStyle=elbowEdgeStyle;shape=connector;rounded=0;orthogonalLoop=1;jettySize=auto;html=1;labelBackgroundColor=default;strokeColor=default;fontFamily=Helvetica;fontSize=11;fontColor=default;endArrow=classic;endFill=1;entryX=0.493;entryY=1.032;entryDx=0;entryDy=0;entryPerimeter=0;" edge="1" parent="1" source="k189rI_YwZPAKSkOKAYH-168" target="k189rI_YwZPAKSkOKAYH-165">
          <mxGeometry relative="1" as="geometry">
            <Array as="points">
              <mxPoint x="819" y="1350" />
            </Array>
          </mxGeometry>
        </mxCell>
        <mxCell id="k189rI_YwZPAKSkOKAYH-214" style="edgeStyle=elbowEdgeStyle;shape=connector;rounded=0;orthogonalLoop=1;jettySize=auto;html=1;entryX=0;entryY=0.5;entryDx=0;entryDy=0;labelBackgroundColor=default;strokeColor=default;fontFamily=Helvetica;fontSize=11;fontColor=default;endArrow=classic;endFill=1;exitX=1;exitY=0.5;exitDx=0;exitDy=0;" edge="1" parent="1" source="k189rI_YwZPAKSkOKAYH-175" target="k189rI_YwZPAKSkOKAYH-156">
          <mxGeometry relative="1" as="geometry" />
        </mxCell>
        <mxCell id="k189rI_YwZPAKSkOKAYH-168" value="Turma" style="shape=table;startSize=30;container=1;collapsible=1;childLayout=tableLayout;fixedRows=1;rowLines=0;fontStyle=1;align=center;resizeLast=1;html=1;fontFamily=Helvetica;fontSize=11;fontColor=default;" vertex="1" parent="1">
          <mxGeometry x="560" y="1441" width="180" height="120" as="geometry" />
        </mxCell>
        <mxCell id="k189rI_YwZPAKSkOKAYH-169" value="" style="shape=tableRow;horizontal=0;startSize=0;swimlaneHead=0;swimlaneBody=0;fillColor=none;collapsible=0;dropTarget=0;points=[[0,0.5],[1,0.5]];portConstraint=eastwest;top=0;left=0;right=0;bottom=1;fontFamily=Helvetica;fontSize=11;fontColor=default;" vertex="1" parent="k189rI_YwZPAKSkOKAYH-168">
          <mxGeometry y="30" width="180" height="30" as="geometry" />
        </mxCell>
        <mxCell id="k189rI_YwZPAKSkOKAYH-170" value="PK" style="shape=partialRectangle;connectable=0;fillColor=none;top=0;left=0;bottom=0;right=0;fontStyle=1;overflow=hidden;whiteSpace=wrap;html=1;fontFamily=Helvetica;fontSize=11;fontColor=default;" vertex="1" parent="k189rI_YwZPAKSkOKAYH-169">
          <mxGeometry width="30" height="30" as="geometry">
            <mxRectangle width="30" height="30" as="alternateBounds" />
          </mxGeometry>
        </mxCell>
        <mxCell id="k189rI_YwZPAKSkOKAYH-171" value="IdTurma" style="shape=partialRectangle;connectable=0;fillColor=none;top=0;left=0;bottom=0;right=0;align=left;spacingLeft=6;fontStyle=5;overflow=hidden;whiteSpace=wrap;html=1;fontFamily=Helvetica;fontSize=11;fontColor=default;" vertex="1" parent="k189rI_YwZPAKSkOKAYH-169">
          <mxGeometry x="30" width="150" height="30" as="geometry">
            <mxRectangle width="150" height="30" as="alternateBounds" />
          </mxGeometry>
        </mxCell>
        <mxCell id="k189rI_YwZPAKSkOKAYH-175" value="" style="shape=tableRow;horizontal=0;startSize=0;swimlaneHead=0;swimlaneBody=0;fillColor=none;collapsible=0;dropTarget=0;points=[[0,0.5],[1,0.5]];portConstraint=eastwest;top=0;left=0;right=0;bottom=0;fontFamily=Helvetica;fontSize=11;fontColor=default;" vertex="1" parent="k189rI_YwZPAKSkOKAYH-168">
          <mxGeometry y="60" width="180" height="30" as="geometry" />
        </mxCell>
        <mxCell id="k189rI_YwZPAKSkOKAYH-176" value="&amp;nbsp;PK,&lt;br&gt;FK" style="shape=partialRectangle;connectable=0;fillColor=none;top=0;left=0;bottom=0;right=0;editable=1;overflow=hidden;whiteSpace=wrap;html=1;fontFamily=Helvetica;fontSize=11;fontColor=default;fontStyle=1" vertex="1" parent="k189rI_YwZPAKSkOKAYH-175">
          <mxGeometry width="30" height="30" as="geometry">
            <mxRectangle width="30" height="30" as="alternateBounds" />
          </mxGeometry>
        </mxCell>
        <mxCell id="k189rI_YwZPAKSkOKAYH-177" value="IdDisciplina" style="shape=partialRectangle;connectable=0;fillColor=none;top=0;left=0;bottom=0;right=0;align=left;spacingLeft=6;overflow=hidden;whiteSpace=wrap;html=1;fontFamily=Helvetica;fontSize=11;fontColor=default;fontStyle=1" vertex="1" parent="k189rI_YwZPAKSkOKAYH-175">
          <mxGeometry x="30" width="150" height="30" as="geometry">
            <mxRectangle width="150" height="30" as="alternateBounds" />
          </mxGeometry>
        </mxCell>
        <mxCell id="k189rI_YwZPAKSkOKAYH-178" value="" style="shape=tableRow;horizontal=0;startSize=0;swimlaneHead=0;swimlaneBody=0;fillColor=none;collapsible=0;dropTarget=0;points=[[0,0.5],[1,0.5]];portConstraint=eastwest;top=0;left=0;right=0;bottom=0;fontFamily=Helvetica;fontSize=11;fontColor=default;" vertex="1" parent="k189rI_YwZPAKSkOKAYH-168">
          <mxGeometry y="90" width="180" height="30" as="geometry" />
        </mxCell>
        <mxCell id="k189rI_YwZPAKSkOKAYH-179" value="" style="shape=partialRectangle;connectable=0;fillColor=none;top=0;left=0;bottom=0;right=0;editable=1;overflow=hidden;whiteSpace=wrap;html=1;fontFamily=Helvetica;fontSize=11;fontColor=default;" vertex="1" parent="k189rI_YwZPAKSkOKAYH-178">
          <mxGeometry width="30" height="30" as="geometry">
            <mxRectangle width="30" height="30" as="alternateBounds" />
          </mxGeometry>
        </mxCell>
        <mxCell id="k189rI_YwZPAKSkOKAYH-180" value="[...]" style="shape=partialRectangle;connectable=0;fillColor=none;top=0;left=0;bottom=0;right=0;align=left;spacingLeft=6;overflow=hidden;whiteSpace=wrap;html=1;fontFamily=Helvetica;fontSize=11;fontColor=default;" vertex="1" parent="k189rI_YwZPAKSkOKAYH-178">
          <mxGeometry x="30" width="150" height="30" as="geometry">
            <mxRectangle width="150" height="30" as="alternateBounds" />
          </mxGeometry>
        </mxCell>
        <mxCell id="k189rI_YwZPAKSkOKAYH-194" value="" style="endArrow=none;html=1;rounded=0;labelBackgroundColor=default;strokeColor=default;fontFamily=Helvetica;fontSize=11;fontColor=default;shape=connector;entryX=0.989;entryY=-0.008;entryDx=0;entryDy=0;entryPerimeter=0;exitX=-0.005;exitY=-0.008;exitDx=0;exitDy=0;exitPerimeter=0;" edge="1" parent="k189rI_YwZPAKSkOKAYH-168" source="k189rI_YwZPAKSkOKAYH-178" target="k189rI_YwZPAKSkOKAYH-178">
          <mxGeometry width="50" height="50" relative="1" as="geometry">
            <mxPoint x="-110" y="60" as="sourcePoint" />
            <mxPoint x="-60" y="10" as="targetPoint" />
          </mxGeometry>
        </mxCell>
        <mxCell id="k189rI_YwZPAKSkOKAYH-206" style="edgeStyle=orthogonalEdgeStyle;shape=connector;rounded=0;orthogonalLoop=1;jettySize=auto;html=1;entryX=0;entryY=0.5;entryDx=0;entryDy=0;labelBackgroundColor=default;strokeColor=default;fontFamily=Helvetica;fontSize=11;fontColor=default;endArrow=classic;endFill=1;" edge="1" parent="1" source="k189rI_YwZPAKSkOKAYH-181" target="k189rI_YwZPAKSkOKAYH-175">
          <mxGeometry relative="1" as="geometry" />
        </mxCell>
        <mxCell id="k189rI_YwZPAKSkOKAYH-208" style="edgeStyle=orthogonalEdgeStyle;shape=connector;rounded=0;orthogonalLoop=1;jettySize=auto;html=1;labelBackgroundColor=default;strokeColor=default;fontFamily=Helvetica;fontSize=11;fontColor=default;endArrow=classic;endFill=1;" edge="1" parent="1" source="k189rI_YwZPAKSkOKAYH-181" target="k189rI_YwZPAKSkOKAYH-139">
          <mxGeometry relative="1" as="geometry" />
        </mxCell>
        <mxCell id="k189rI_YwZPAKSkOKAYH-181" value="Nota" style="shape=table;startSize=30;container=1;collapsible=1;childLayout=tableLayout;fixedRows=1;rowLines=0;fontStyle=1;align=center;resizeLast=1;html=1;fontFamily=Helvetica;fontSize=11;fontColor=default;" vertex="1" parent="1">
          <mxGeometry x="280" y="1250" width="180" height="180" as="geometry" />
        </mxCell>
        <mxCell id="k189rI_YwZPAKSkOKAYH-182" value="" style="shape=tableRow;horizontal=0;startSize=0;swimlaneHead=0;swimlaneBody=0;fillColor=none;collapsible=0;dropTarget=0;points=[[0,0.5],[1,0.5]];portConstraint=eastwest;top=0;left=0;right=0;bottom=1;fontFamily=Helvetica;fontSize=11;fontColor=default;" vertex="1" parent="k189rI_YwZPAKSkOKAYH-181">
          <mxGeometry y="30" width="180" height="30" as="geometry" />
        </mxCell>
        <mxCell id="k189rI_YwZPAKSkOKAYH-183" value="PK" style="shape=partialRectangle;connectable=0;fillColor=none;top=0;left=0;bottom=0;right=0;fontStyle=1;overflow=hidden;whiteSpace=wrap;html=1;fontFamily=Helvetica;fontSize=11;fontColor=default;" vertex="1" parent="k189rI_YwZPAKSkOKAYH-182">
          <mxGeometry width="30" height="30" as="geometry">
            <mxRectangle width="30" height="30" as="alternateBounds" />
          </mxGeometry>
        </mxCell>
        <mxCell id="k189rI_YwZPAKSkOKAYH-184" value="IdNota" style="shape=partialRectangle;connectable=0;fillColor=none;top=0;left=0;bottom=0;right=0;align=left;spacingLeft=6;fontStyle=5;overflow=hidden;whiteSpace=wrap;html=1;fontFamily=Helvetica;fontSize=11;fontColor=default;" vertex="1" parent="k189rI_YwZPAKSkOKAYH-182">
          <mxGeometry x="30" width="150" height="30" as="geometry">
            <mxRectangle width="150" height="30" as="alternateBounds" />
          </mxGeometry>
        </mxCell>
        <mxCell id="k189rI_YwZPAKSkOKAYH-185" value="" style="shape=tableRow;horizontal=0;startSize=0;swimlaneHead=0;swimlaneBody=0;fillColor=none;collapsible=0;dropTarget=0;points=[[0,0.5],[1,0.5]];portConstraint=eastwest;top=0;left=0;right=0;bottom=0;fontFamily=Helvetica;fontSize=11;fontColor=default;" vertex="1" parent="k189rI_YwZPAKSkOKAYH-181">
          <mxGeometry y="60" width="180" height="30" as="geometry" />
        </mxCell>
        <mxCell id="k189rI_YwZPAKSkOKAYH-186" value="FK" style="shape=partialRectangle;connectable=0;fillColor=none;top=0;left=0;bottom=0;right=0;editable=1;overflow=hidden;whiteSpace=wrap;html=1;fontFamily=Helvetica;fontSize=11;fontColor=default;" vertex="1" parent="k189rI_YwZPAKSkOKAYH-185">
          <mxGeometry width="30" height="30" as="geometry">
            <mxRectangle width="30" height="30" as="alternateBounds" />
          </mxGeometry>
        </mxCell>
        <mxCell id="k189rI_YwZPAKSkOKAYH-187" value="IdAluno" style="shape=partialRectangle;connectable=0;fillColor=none;top=0;left=0;bottom=0;right=0;align=left;spacingLeft=6;overflow=hidden;whiteSpace=wrap;html=1;fontFamily=Helvetica;fontSize=11;fontColor=default;" vertex="1" parent="k189rI_YwZPAKSkOKAYH-185">
          <mxGeometry x="30" width="150" height="30" as="geometry">
            <mxRectangle width="150" height="30" as="alternateBounds" />
          </mxGeometry>
        </mxCell>
        <mxCell id="k189rI_YwZPAKSkOKAYH-188" value="" style="shape=tableRow;horizontal=0;startSize=0;swimlaneHead=0;swimlaneBody=0;fillColor=none;collapsible=0;dropTarget=0;points=[[0,0.5],[1,0.5]];portConstraint=eastwest;top=0;left=0;right=0;bottom=0;fontFamily=Helvetica;fontSize=11;fontColor=default;" vertex="1" parent="k189rI_YwZPAKSkOKAYH-181">
          <mxGeometry y="90" width="180" height="30" as="geometry" />
        </mxCell>
        <mxCell id="k189rI_YwZPAKSkOKAYH-189" value="FK" style="shape=partialRectangle;connectable=0;fillColor=none;top=0;left=0;bottom=0;right=0;editable=1;overflow=hidden;whiteSpace=wrap;html=1;fontFamily=Helvetica;fontSize=11;fontColor=default;" vertex="1" parent="k189rI_YwZPAKSkOKAYH-188">
          <mxGeometry width="30" height="30" as="geometry">
            <mxRectangle width="30" height="30" as="alternateBounds" />
          </mxGeometry>
        </mxCell>
        <mxCell id="k189rI_YwZPAKSkOKAYH-190" value="IdTurma" style="shape=partialRectangle;connectable=0;fillColor=none;top=0;left=0;bottom=0;right=0;align=left;spacingLeft=6;overflow=hidden;whiteSpace=wrap;html=1;fontFamily=Helvetica;fontSize=11;fontColor=default;" vertex="1" parent="k189rI_YwZPAKSkOKAYH-188">
          <mxGeometry x="30" width="150" height="30" as="geometry">
            <mxRectangle width="150" height="30" as="alternateBounds" />
          </mxGeometry>
        </mxCell>
        <mxCell id="k189rI_YwZPAKSkOKAYH-191" value="" style="shape=tableRow;horizontal=0;startSize=0;swimlaneHead=0;swimlaneBody=0;fillColor=none;collapsible=0;dropTarget=0;points=[[0,0.5],[1,0.5]];portConstraint=eastwest;top=0;left=0;right=0;bottom=0;fontFamily=Helvetica;fontSize=11;fontColor=default;" vertex="1" parent="k189rI_YwZPAKSkOKAYH-181">
          <mxGeometry y="120" width="180" height="30" as="geometry" />
        </mxCell>
        <mxCell id="k189rI_YwZPAKSkOKAYH-192" value="FK" style="shape=partialRectangle;connectable=0;fillColor=none;top=0;left=0;bottom=0;right=0;editable=1;overflow=hidden;whiteSpace=wrap;html=1;fontFamily=Helvetica;fontSize=11;fontColor=default;" vertex="1" parent="k189rI_YwZPAKSkOKAYH-191">
          <mxGeometry width="30" height="30" as="geometry">
            <mxRectangle width="30" height="30" as="alternateBounds" />
          </mxGeometry>
        </mxCell>
        <mxCell id="k189rI_YwZPAKSkOKAYH-193" value="IdDisciplina" style="shape=partialRectangle;connectable=0;fillColor=none;top=0;left=0;bottom=0;right=0;align=left;spacingLeft=6;overflow=hidden;whiteSpace=wrap;html=1;fontFamily=Helvetica;fontSize=11;fontColor=default;" vertex="1" parent="k189rI_YwZPAKSkOKAYH-191">
          <mxGeometry x="30" width="150" height="30" as="geometry">
            <mxRectangle width="150" height="30" as="alternateBounds" />
          </mxGeometry>
        </mxCell>
        <mxCell id="k189rI_YwZPAKSkOKAYH-215" style="shape=tableRow;horizontal=0;startSize=0;swimlaneHead=0;swimlaneBody=0;fillColor=none;collapsible=0;dropTarget=0;points=[[0,0.5],[1,0.5]];portConstraint=eastwest;top=0;left=0;right=0;bottom=0;fontFamily=Helvetica;fontSize=11;fontColor=default;" vertex="1" parent="k189rI_YwZPAKSkOKAYH-181">
          <mxGeometry y="150" width="180" height="30" as="geometry" />
        </mxCell>
        <mxCell id="k189rI_YwZPAKSkOKAYH-216" style="shape=partialRectangle;connectable=0;fillColor=none;top=0;left=0;bottom=0;right=0;editable=1;overflow=hidden;whiteSpace=wrap;html=1;fontFamily=Helvetica;fontSize=11;fontColor=default;" vertex="1" parent="k189rI_YwZPAKSkOKAYH-215">
          <mxGeometry width="30" height="30" as="geometry">
            <mxRectangle width="30" height="30" as="alternateBounds" />
          </mxGeometry>
        </mxCell>
        <mxCell id="k189rI_YwZPAKSkOKAYH-217" value="Nota" style="shape=partialRectangle;connectable=0;fillColor=none;top=0;left=0;bottom=0;right=0;align=left;spacingLeft=6;overflow=hidden;whiteSpace=wrap;html=1;fontFamily=Helvetica;fontSize=11;fontColor=default;" vertex="1" parent="k189rI_YwZPAKSkOKAYH-215">
          <mxGeometry x="30" width="150" height="30" as="geometry">
            <mxRectangle width="150" height="30" as="alternateBounds" />
          </mxGeometry>
        </mxCell>
        <mxCell id="k189rI_YwZPAKSkOKAYH-202" style="edgeStyle=none;shape=connector;rounded=0;orthogonalLoop=1;jettySize=auto;html=1;labelBackgroundColor=default;strokeColor=default;fontFamily=Helvetica;fontSize=11;fontColor=default;endArrow=classic;endFill=1;" edge="1" parent="1" source="k189rI_YwZPAKSkOKAYH-133" target="k189rI_YwZPAKSkOKAYH-199">
          <mxGeometry relative="1" as="geometry" />
        </mxCell>
        <mxCell id="k189rI_YwZPAKSkOKAYH-212" style="edgeStyle=elbowEdgeStyle;shape=connector;rounded=0;orthogonalLoop=1;jettySize=auto;html=1;entryX=0;entryY=0.5;entryDx=0;entryDy=0;labelBackgroundColor=default;strokeColor=default;fontFamily=Helvetica;fontSize=11;fontColor=default;endArrow=classic;endFill=1;" edge="1" parent="1" source="k189rI_YwZPAKSkOKAYH-133" target="k189rI_YwZPAKSkOKAYH-143">
          <mxGeometry relative="1" as="geometry" />
        </mxCell>
        <mxCell id="k189rI_YwZPAKSkOKAYH-213" style="edgeStyle=elbowEdgeStyle;shape=connector;rounded=0;orthogonalLoop=1;jettySize=auto;html=1;exitX=1;exitY=0.5;exitDx=0;exitDy=0;labelBackgroundColor=default;strokeColor=default;fontFamily=Helvetica;fontSize=11;fontColor=default;endArrow=classic;endFill=1;" edge="1" parent="1" source="k189rI_YwZPAKSkOKAYH-143" target="k189rI_YwZPAKSkOKAYH-155">
          <mxGeometry relative="1" as="geometry">
            <Array as="points">
              <mxPoint x="935" y="1151" />
            </Array>
          </mxGeometry>
        </mxCell>
        <mxCell id="k189rI_YwZPAKSkOKAYH-237" style="edgeStyle=elbowEdgeStyle;shape=connector;rounded=0;orthogonalLoop=1;jettySize=auto;html=1;labelBackgroundColor=default;strokeColor=default;fontFamily=Helvetica;fontSize=11;fontColor=default;endArrow=classic;endFill=1;" edge="1" parent="1" source="k189rI_YwZPAKSkOKAYH-218" target="k189rI_YwZPAKSkOKAYH-133">
          <mxGeometry relative="1" as="geometry" />
        </mxCell>
        <mxCell id="k189rI_YwZPAKSkOKAYH-218" value="Formação" style="shape=table;startSize=30;container=1;collapsible=1;childLayout=tableLayout;fixedRows=1;rowLines=0;fontStyle=1;align=center;resizeLast=1;html=1;fontFamily=Helvetica;fontSize=11;fontColor=default;" vertex="1" parent="1">
          <mxGeometry x="145" y="980" width="180" height="150" as="geometry" />
        </mxCell>
        <mxCell id="k189rI_YwZPAKSkOKAYH-219" value="" style="shape=tableRow;horizontal=0;startSize=0;swimlaneHead=0;swimlaneBody=0;fillColor=none;collapsible=0;dropTarget=0;points=[[0,0.5],[1,0.5]];portConstraint=eastwest;top=0;left=0;right=0;bottom=1;fontFamily=Helvetica;fontSize=11;fontColor=default;" vertex="1" parent="k189rI_YwZPAKSkOKAYH-218">
          <mxGeometry y="30" width="180" height="30" as="geometry" />
        </mxCell>
        <mxCell id="k189rI_YwZPAKSkOKAYH-220" value="PK" style="shape=partialRectangle;connectable=0;fillColor=none;top=0;left=0;bottom=0;right=0;fontStyle=1;overflow=hidden;whiteSpace=wrap;html=1;fontFamily=Helvetica;fontSize=11;fontColor=default;" vertex="1" parent="k189rI_YwZPAKSkOKAYH-219">
          <mxGeometry width="30" height="30" as="geometry">
            <mxRectangle width="30" height="30" as="alternateBounds" />
          </mxGeometry>
        </mxCell>
        <mxCell id="k189rI_YwZPAKSkOKAYH-221" value="IdFormação" style="shape=partialRectangle;connectable=0;fillColor=none;top=0;left=0;bottom=0;right=0;align=left;spacingLeft=6;fontStyle=5;overflow=hidden;whiteSpace=wrap;html=1;fontFamily=Helvetica;fontSize=11;fontColor=default;" vertex="1" parent="k189rI_YwZPAKSkOKAYH-219">
          <mxGeometry x="30" width="150" height="30" as="geometry">
            <mxRectangle width="150" height="30" as="alternateBounds" />
          </mxGeometry>
        </mxCell>
        <mxCell id="k189rI_YwZPAKSkOKAYH-234" style="shape=tableRow;horizontal=0;startSize=0;swimlaneHead=0;swimlaneBody=0;fillColor=none;collapsible=0;dropTarget=0;points=[[0,0.5],[1,0.5]];portConstraint=eastwest;top=0;left=0;right=0;bottom=1;fontFamily=Helvetica;fontSize=11;fontColor=default;" vertex="1" parent="k189rI_YwZPAKSkOKAYH-218">
          <mxGeometry y="60" width="180" height="30" as="geometry" />
        </mxCell>
        <mxCell id="k189rI_YwZPAKSkOKAYH-235" value="PK,&lt;br&gt;FK" style="shape=partialRectangle;connectable=0;fillColor=none;top=0;left=0;bottom=0;right=0;fontStyle=1;overflow=hidden;whiteSpace=wrap;html=1;fontFamily=Helvetica;fontSize=11;fontColor=default;" vertex="1" parent="k189rI_YwZPAKSkOKAYH-234">
          <mxGeometry width="30" height="30" as="geometry">
            <mxRectangle width="30" height="30" as="alternateBounds" />
          </mxGeometry>
        </mxCell>
        <mxCell id="k189rI_YwZPAKSkOKAYH-236" value="IdAluno" style="shape=partialRectangle;connectable=0;fillColor=none;top=0;left=0;bottom=0;right=0;align=left;spacingLeft=6;fontStyle=5;overflow=hidden;whiteSpace=wrap;html=1;fontFamily=Helvetica;fontSize=11;fontColor=default;" vertex="1" parent="k189rI_YwZPAKSkOKAYH-234">
          <mxGeometry x="30" width="150" height="30" as="geometry">
            <mxRectangle width="150" height="30" as="alternateBounds" />
          </mxGeometry>
        </mxCell>
        <mxCell id="k189rI_YwZPAKSkOKAYH-222" value="" style="shape=tableRow;horizontal=0;startSize=0;swimlaneHead=0;swimlaneBody=0;fillColor=none;collapsible=0;dropTarget=0;points=[[0,0.5],[1,0.5]];portConstraint=eastwest;top=0;left=0;right=0;bottom=0;fontFamily=Helvetica;fontSize=11;fontColor=default;" vertex="1" parent="k189rI_YwZPAKSkOKAYH-218">
          <mxGeometry y="90" width="180" height="30" as="geometry" />
        </mxCell>
        <mxCell id="k189rI_YwZPAKSkOKAYH-223" value="" style="shape=partialRectangle;connectable=0;fillColor=none;top=0;left=0;bottom=0;right=0;editable=1;overflow=hidden;whiteSpace=wrap;html=1;fontFamily=Helvetica;fontSize=11;fontColor=default;" vertex="1" parent="k189rI_YwZPAKSkOKAYH-222">
          <mxGeometry width="30" height="30" as="geometry">
            <mxRectangle width="30" height="30" as="alternateBounds" />
          </mxGeometry>
        </mxCell>
        <mxCell id="k189rI_YwZPAKSkOKAYH-224" value="Formação" style="shape=partialRectangle;connectable=0;fillColor=none;top=0;left=0;bottom=0;right=0;align=left;spacingLeft=6;overflow=hidden;whiteSpace=wrap;html=1;fontFamily=Helvetica;fontSize=11;fontColor=default;" vertex="1" parent="k189rI_YwZPAKSkOKAYH-222">
          <mxGeometry x="30" width="150" height="30" as="geometry">
            <mxRectangle width="150" height="30" as="alternateBounds" />
          </mxGeometry>
        </mxCell>
        <mxCell id="k189rI_YwZPAKSkOKAYH-228" value="" style="shape=tableRow;horizontal=0;startSize=0;swimlaneHead=0;swimlaneBody=0;fillColor=none;collapsible=0;dropTarget=0;points=[[0,0.5],[1,0.5]];portConstraint=eastwest;top=0;left=0;right=0;bottom=0;fontFamily=Helvetica;fontSize=11;fontColor=default;" vertex="1" parent="k189rI_YwZPAKSkOKAYH-218">
          <mxGeometry y="120" width="180" height="30" as="geometry" />
        </mxCell>
        <mxCell id="k189rI_YwZPAKSkOKAYH-229" value="" style="shape=partialRectangle;connectable=0;fillColor=none;top=0;left=0;bottom=0;right=0;editable=1;overflow=hidden;whiteSpace=wrap;html=1;fontFamily=Helvetica;fontSize=11;fontColor=default;" vertex="1" parent="k189rI_YwZPAKSkOKAYH-228">
          <mxGeometry width="30" height="30" as="geometry">
            <mxRectangle width="30" height="30" as="alternateBounds" />
          </mxGeometry>
        </mxCell>
        <mxCell id="k189rI_YwZPAKSkOKAYH-230" value="[..]" style="shape=partialRectangle;connectable=0;fillColor=none;top=0;left=0;bottom=0;right=0;align=left;spacingLeft=6;overflow=hidden;whiteSpace=wrap;html=1;fontFamily=Helvetica;fontSize=11;fontColor=default;" vertex="1" parent="k189rI_YwZPAKSkOKAYH-228">
          <mxGeometry x="30" width="150" height="30" as="geometry">
            <mxRectangle width="150" height="30" as="alternateBounds" />
          </mxGeometry>
        </mxCell>
      </root>
    </mxGraphModel>
  </diagram>
  <diagram id="t9wLXLRofjrIypYy40oe" name="Página-3">
    <mxGraphModel dx="2418" dy="1484" grid="1" gridSize="10" guides="1" tooltips="1" connect="1" arrows="1" fold="1" page="1" pageScale="1" pageWidth="1100" pageHeight="850" math="0" shadow="0">
      <root>
        <mxCell id="0" />
        <mxCell id="1" parent="0" />
        <mxCell id="OasMMPi9VcT6Bzo_EhNH-20" style="edgeStyle=none;shape=connector;rounded=0;orthogonalLoop=1;jettySize=auto;html=1;labelBackgroundColor=default;strokeColor=default;fontFamily=Helvetica;fontSize=15;fontColor=default;endArrow=none;endFill=0;" edge="1" parent="1" source="OasMMPi9VcT6Bzo_EhNH-1" target="OasMMPi9VcT6Bzo_EhNH-3">
          <mxGeometry relative="1" as="geometry" />
        </mxCell>
        <mxCell id="OasMMPi9VcT6Bzo_EhNH-96" value="N" style="edgeLabel;html=1;align=center;verticalAlign=middle;resizable=0;points=[];fontSize=15;fontFamily=Helvetica;fontColor=default;fontStyle=1" vertex="1" connectable="0" parent="OasMMPi9VcT6Bzo_EhNH-20">
          <mxGeometry x="0.1163" y="2" relative="1" as="geometry">
            <mxPoint x="2" y="-2" as="offset" />
          </mxGeometry>
        </mxCell>
        <mxCell id="OasMMPi9VcT6Bzo_EhNH-22" style="edgeStyle=none;shape=connector;rounded=0;orthogonalLoop=1;jettySize=auto;html=1;labelBackgroundColor=default;strokeColor=default;fontFamily=Helvetica;fontSize=15;fontColor=default;endArrow=none;endFill=0;" edge="1" parent="1" source="OasMMPi9VcT6Bzo_EhNH-1" target="OasMMPi9VcT6Bzo_EhNH-11">
          <mxGeometry relative="1" as="geometry" />
        </mxCell>
        <mxCell id="OasMMPi9VcT6Bzo_EhNH-91" value="N" style="edgeLabel;html=1;align=center;verticalAlign=middle;resizable=0;points=[];fontSize=15;fontFamily=Helvetica;fontColor=default;fontStyle=1" vertex="1" connectable="0" parent="OasMMPi9VcT6Bzo_EhNH-22">
          <mxGeometry x="-0.234" relative="1" as="geometry">
            <mxPoint y="37" as="offset" />
          </mxGeometry>
        </mxCell>
        <mxCell id="OasMMPi9VcT6Bzo_EhNH-31" value="N" style="edgeStyle=none;shape=connector;rounded=0;orthogonalLoop=1;jettySize=auto;html=1;labelBackgroundColor=default;strokeColor=default;fontFamily=Helvetica;fontSize=15;fontColor=default;endArrow=none;endFill=0;fontStyle=1" edge="1" parent="1" source="OasMMPi9VcT6Bzo_EhNH-1" target="OasMMPi9VcT6Bzo_EhNH-30">
          <mxGeometry x="0.6923" relative="1" as="geometry">
            <mxPoint as="offset" />
          </mxGeometry>
        </mxCell>
        <mxCell id="OasMMPi9VcT6Bzo_EhNH-1" value="Aeronave" style="whiteSpace=wrap;html=1;align=center;fontFamily=Helvetica;fontSize=15;fontColor=default;" vertex="1" parent="1">
          <mxGeometry x="180" y="450" width="100" height="40" as="geometry" />
        </mxCell>
        <mxCell id="OasMMPi9VcT6Bzo_EhNH-14" style="shape=connector;rounded=0;orthogonalLoop=1;jettySize=auto;html=1;labelBackgroundColor=default;strokeColor=default;fontFamily=Helvetica;fontSize=15;fontColor=default;endArrow=none;endFill=0;" edge="1" parent="1" source="OasMMPi9VcT6Bzo_EhNH-2" target="OasMMPi9VcT6Bzo_EhNH-12">
          <mxGeometry relative="1" as="geometry" />
        </mxCell>
        <mxCell id="OasMMPi9VcT6Bzo_EhNH-110" value="N" style="edgeLabel;html=1;align=center;verticalAlign=middle;resizable=0;points=[];fontSize=15;fontFamily=Helvetica;fontColor=default;fontStyle=1" vertex="1" connectable="0" parent="OasMMPi9VcT6Bzo_EhNH-14">
          <mxGeometry x="0.4355" y="-3" relative="1" as="geometry">
            <mxPoint x="24" y="-22" as="offset" />
          </mxGeometry>
        </mxCell>
        <mxCell id="OasMMPi9VcT6Bzo_EhNH-2" value="Tipo Avião" style="whiteSpace=wrap;html=1;align=center;fontFamily=Helvetica;fontSize=15;fontColor=default;" vertex="1" parent="1">
          <mxGeometry x="180" y="240" width="100" height="40" as="geometry" />
        </mxCell>
        <mxCell id="OasMMPi9VcT6Bzo_EhNH-21" style="edgeStyle=none;shape=connector;rounded=0;orthogonalLoop=1;jettySize=auto;html=1;labelBackgroundColor=default;strokeColor=default;fontFamily=Helvetica;fontSize=15;fontColor=default;endArrow=none;endFill=0;" edge="1" parent="1" source="OasMMPi9VcT6Bzo_EhNH-3" target="OasMMPi9VcT6Bzo_EhNH-2">
          <mxGeometry relative="1" as="geometry" />
        </mxCell>
        <mxCell id="OasMMPi9VcT6Bzo_EhNH-97" value="1" style="edgeLabel;html=1;align=center;verticalAlign=middle;resizable=0;points=[];fontSize=15;fontFamily=Helvetica;fontColor=default;fontStyle=1" vertex="1" connectable="0" parent="OasMMPi9VcT6Bzo_EhNH-21">
          <mxGeometry x="-0.0698" y="-2" relative="1" as="geometry">
            <mxPoint x="-2" y="13" as="offset" />
          </mxGeometry>
        </mxCell>
        <mxCell id="OasMMPi9VcT6Bzo_EhNH-3" value="Do Tipo" style="shape=rhombus;perimeter=rhombusPerimeter;whiteSpace=wrap;html=1;align=center;fontFamily=Helvetica;fontSize=15;fontColor=default;" vertex="1" parent="1">
          <mxGeometry x="170" y="340" width="120" height="60" as="geometry" />
        </mxCell>
        <mxCell id="OasMMPi9VcT6Bzo_EhNH-39" style="edgeStyle=none;shape=connector;rounded=0;orthogonalLoop=1;jettySize=auto;html=1;labelBackgroundColor=default;strokeColor=default;fontFamily=Helvetica;fontSize=15;fontColor=default;endArrow=none;endFill=0;" edge="1" parent="1" source="OasMMPi9VcT6Bzo_EhNH-4" target="OasMMPi9VcT6Bzo_EhNH-37">
          <mxGeometry relative="1" as="geometry" />
        </mxCell>
        <mxCell id="OasMMPi9VcT6Bzo_EhNH-85" value="M" style="edgeLabel;html=1;align=center;verticalAlign=middle;resizable=0;points=[];fontSize=15;fontFamily=Helvetica;fontColor=default;fontStyle=1" vertex="1" connectable="0" parent="OasMMPi9VcT6Bzo_EhNH-39">
          <mxGeometry x="-0.1091" y="1" relative="1" as="geometry">
            <mxPoint x="-1" y="35" as="offset" />
          </mxGeometry>
        </mxCell>
        <mxCell id="OasMMPi9VcT6Bzo_EhNH-83" style="edgeStyle=none;shape=connector;rounded=0;orthogonalLoop=1;jettySize=auto;html=1;labelBackgroundColor=default;strokeColor=default;fontFamily=Helvetica;fontSize=15;fontColor=default;endArrow=none;endFill=0;" edge="1" parent="1" source="OasMMPi9VcT6Bzo_EhNH-4" target="OasMMPi9VcT6Bzo_EhNH-78">
          <mxGeometry relative="1" as="geometry" />
        </mxCell>
        <mxCell id="OasMMPi9VcT6Bzo_EhNH-84" style="edgeStyle=none;shape=connector;rounded=0;orthogonalLoop=1;jettySize=auto;html=1;labelBackgroundColor=default;strokeColor=default;fontFamily=Helvetica;fontSize=15;fontColor=default;endArrow=none;endFill=0;" edge="1" parent="1" source="OasMMPi9VcT6Bzo_EhNH-4" target="OasMMPi9VcT6Bzo_EhNH-79">
          <mxGeometry relative="1" as="geometry" />
        </mxCell>
        <mxCell id="OasMMPi9VcT6Bzo_EhNH-4" value="Funcionário" style="whiteSpace=wrap;html=1;align=center;fontFamily=Helvetica;fontSize=15;fontColor=default;" vertex="1" parent="1">
          <mxGeometry x="740" y="90" width="100" height="40" as="geometry" />
        </mxCell>
        <mxCell id="OasMMPi9VcT6Bzo_EhNH-5" value="Hangar" style="whiteSpace=wrap;html=1;align=center;fontFamily=Helvetica;fontSize=15;fontColor=default;" vertex="1" parent="1">
          <mxGeometry x="180" y="690" width="100" height="40" as="geometry" />
        </mxCell>
        <mxCell id="OasMMPi9VcT6Bzo_EhNH-69" style="edgeStyle=none;shape=connector;rounded=0;orthogonalLoop=1;jettySize=auto;html=1;labelBackgroundColor=default;strokeColor=default;fontFamily=Helvetica;fontSize=15;fontColor=default;endArrow=none;endFill=0;" edge="1" parent="1" source="OasMMPi9VcT6Bzo_EhNH-6" target="OasMMPi9VcT6Bzo_EhNH-68">
          <mxGeometry relative="1" as="geometry" />
        </mxCell>
        <mxCell id="OasMMPi9VcT6Bzo_EhNH-6" value="Proprietário" style="whiteSpace=wrap;html=1;align=center;fontFamily=Helvetica;fontSize=15;fontColor=default;" vertex="1" parent="1">
          <mxGeometry x="645" y="450" width="105" height="40" as="geometry" />
        </mxCell>
        <mxCell id="OasMMPi9VcT6Bzo_EhNH-24" style="edgeStyle=none;shape=connector;rounded=0;orthogonalLoop=1;jettySize=auto;html=1;labelBackgroundColor=default;strokeColor=default;fontFamily=Helvetica;fontSize=15;fontColor=default;endArrow=none;endFill=0;" edge="1" parent="1" source="OasMMPi9VcT6Bzo_EhNH-7" target="OasMMPi9VcT6Bzo_EhNH-9">
          <mxGeometry relative="1" as="geometry" />
        </mxCell>
        <mxCell id="OasMMPi9VcT6Bzo_EhNH-7" value="Corporação" style="whiteSpace=wrap;html=1;align=center;fontFamily=Helvetica;fontSize=15;fontColor=default;" vertex="1" parent="1">
          <mxGeometry x="570" y="590" width="100" height="40" as="geometry" />
        </mxCell>
        <mxCell id="OasMMPi9VcT6Bzo_EhNH-25" style="edgeStyle=none;shape=connector;rounded=0;orthogonalLoop=1;jettySize=auto;html=1;labelBackgroundColor=default;strokeColor=default;fontFamily=Helvetica;fontSize=15;fontColor=default;endArrow=none;endFill=0;" edge="1" parent="1" source="OasMMPi9VcT6Bzo_EhNH-8" target="OasMMPi9VcT6Bzo_EhNH-9">
          <mxGeometry relative="1" as="geometry" />
        </mxCell>
        <mxCell id="OasMMPi9VcT6Bzo_EhNH-8" value="Pessoa" style="whiteSpace=wrap;html=1;align=center;fontFamily=Helvetica;fontSize=15;fontColor=default;" vertex="1" parent="1">
          <mxGeometry x="730" y="590" width="100" height="40" as="geometry" />
        </mxCell>
        <mxCell id="OasMMPi9VcT6Bzo_EhNH-26" style="edgeStyle=none;shape=connector;rounded=0;orthogonalLoop=1;jettySize=auto;html=1;labelBackgroundColor=default;strokeColor=default;fontFamily=Helvetica;fontSize=15;fontColor=default;endArrow=none;endFill=0;" edge="1" parent="1" source="OasMMPi9VcT6Bzo_EhNH-9" target="OasMMPi9VcT6Bzo_EhNH-6">
          <mxGeometry relative="1" as="geometry" />
        </mxCell>
        <mxCell id="OasMMPi9VcT6Bzo_EhNH-9" value="" style="triangle;whiteSpace=wrap;html=1;fontFamily=Helvetica;fontSize=15;fontColor=default;rotation=-90;" vertex="1" parent="1">
          <mxGeometry x="680" y="490" width="30" height="90" as="geometry" />
        </mxCell>
        <mxCell id="OasMMPi9VcT6Bzo_EhNH-10" value="T" style="text;html=1;align=center;verticalAlign=middle;resizable=0;points=[];autosize=1;strokeColor=none;fillColor=none;fontSize=15;fontFamily=Helvetica;fontColor=default;" vertex="1" parent="1">
          <mxGeometry x="720" y="518" width="30" height="30" as="geometry" />
        </mxCell>
        <mxCell id="OasMMPi9VcT6Bzo_EhNH-23" style="edgeStyle=none;shape=connector;rounded=0;orthogonalLoop=1;jettySize=auto;html=1;labelBackgroundColor=default;strokeColor=default;fontFamily=Helvetica;fontSize=15;fontColor=default;endArrow=none;endFill=0;" edge="1" parent="1" source="OasMMPi9VcT6Bzo_EhNH-11" target="OasMMPi9VcT6Bzo_EhNH-5">
          <mxGeometry relative="1" as="geometry" />
        </mxCell>
        <mxCell id="OasMMPi9VcT6Bzo_EhNH-92" value="1" style="edgeLabel;html=1;align=center;verticalAlign=middle;resizable=0;points=[];fontSize=15;fontFamily=Helvetica;fontColor=default;fontStyle=1" vertex="1" connectable="0" parent="OasMMPi9VcT6Bzo_EhNH-23">
          <mxGeometry x="-0.4454" y="3" relative="1" as="geometry">
            <mxPoint x="-3" as="offset" />
          </mxGeometry>
        </mxCell>
        <mxCell id="OasMMPi9VcT6Bzo_EhNH-11" value="Guardada em" style="shape=rhombus;perimeter=rhombusPerimeter;whiteSpace=wrap;html=1;align=center;fontFamily=Helvetica;fontSize=15;fontColor=default;" vertex="1" parent="1">
          <mxGeometry x="170" y="570" width="120" height="60" as="geometry" />
        </mxCell>
        <mxCell id="OasMMPi9VcT6Bzo_EhNH-16" style="edgeStyle=none;shape=connector;rounded=0;orthogonalLoop=1;jettySize=auto;html=1;labelBackgroundColor=default;strokeColor=default;fontFamily=Helvetica;fontSize=15;fontColor=default;endArrow=none;endFill=0;" edge="1" parent="1" source="OasMMPi9VcT6Bzo_EhNH-12" target="OasMMPi9VcT6Bzo_EhNH-4">
          <mxGeometry relative="1" as="geometry" />
        </mxCell>
        <mxCell id="OasMMPi9VcT6Bzo_EhNH-109" value="N" style="edgeLabel;html=1;align=center;verticalAlign=middle;resizable=0;points=[];fontSize=15;fontFamily=Helvetica;fontColor=default;fontStyle=1" vertex="1" connectable="0" parent="OasMMPi9VcT6Bzo_EhNH-16">
          <mxGeometry x="-0.5713" y="1" relative="1" as="geometry">
            <mxPoint as="offset" />
          </mxGeometry>
        </mxCell>
        <mxCell id="OasMMPi9VcT6Bzo_EhNH-12" value="Trabalha em" style="shape=rhombus;perimeter=rhombusPerimeter;whiteSpace=wrap;html=1;align=center;fontFamily=Helvetica;fontSize=15;fontColor=default;" vertex="1" parent="1">
          <mxGeometry x="400" y="80" width="120" height="60" as="geometry" />
        </mxCell>
        <mxCell id="OasMMPi9VcT6Bzo_EhNH-28" value="M" style="edgeStyle=none;shape=connector;rounded=0;orthogonalLoop=1;jettySize=auto;html=1;labelBackgroundColor=default;strokeColor=default;fontFamily=Helvetica;fontSize=15;fontColor=default;endArrow=none;endFill=0;fontStyle=1" edge="1" parent="1" source="OasMMPi9VcT6Bzo_EhNH-17" target="OasMMPi9VcT6Bzo_EhNH-19">
          <mxGeometry x="0.6" relative="1" as="geometry">
            <mxPoint as="offset" />
          </mxGeometry>
        </mxCell>
        <mxCell id="OasMMPi9VcT6Bzo_EhNH-17" value="Piloto" style="whiteSpace=wrap;html=1;align=center;fontFamily=Helvetica;fontSize=15;fontColor=default;" vertex="1" parent="1">
          <mxGeometry x="180" y="20" width="100" height="40" as="geometry" />
        </mxCell>
        <mxCell id="OasMMPi9VcT6Bzo_EhNH-29" style="edgeStyle=none;shape=connector;rounded=0;orthogonalLoop=1;jettySize=auto;html=1;labelBackgroundColor=default;strokeColor=default;fontFamily=Helvetica;fontSize=15;fontColor=default;endArrow=none;endFill=0;" edge="1" parent="1" source="OasMMPi9VcT6Bzo_EhNH-19" target="OasMMPi9VcT6Bzo_EhNH-2">
          <mxGeometry relative="1" as="geometry">
            <mxPoint x="230" y="230" as="sourcePoint" />
          </mxGeometry>
        </mxCell>
        <mxCell id="OasMMPi9VcT6Bzo_EhNH-98" value="N" style="edgeLabel;html=1;align=center;verticalAlign=middle;resizable=0;points=[];fontSize=15;fontFamily=Helvetica;fontColor=default;fontStyle=1" vertex="1" connectable="0" parent="OasMMPi9VcT6Bzo_EhNH-29">
          <mxGeometry x="-0.3563" y="1" relative="1" as="geometry">
            <mxPoint x="-1" y="-3" as="offset" />
          </mxGeometry>
        </mxCell>
        <mxCell id="OasMMPi9VcT6Bzo_EhNH-19" value="Voa" style="shape=rhombus;perimeter=rhombusPerimeter;whiteSpace=wrap;html=1;align=center;fontFamily=Helvetica;fontSize=15;fontColor=default;" vertex="1" parent="1">
          <mxGeometry x="170" y="110" width="120" height="60" as="geometry" />
        </mxCell>
        <mxCell id="OasMMPi9VcT6Bzo_EhNH-27" style="edgeStyle=none;shape=connector;rounded=0;orthogonalLoop=1;jettySize=auto;html=1;exitX=0.5;exitY=1;exitDx=0;exitDy=0;labelBackgroundColor=default;strokeColor=default;fontFamily=Helvetica;fontSize=15;fontColor=default;endArrow=none;endFill=0;" edge="1" parent="1" source="OasMMPi9VcT6Bzo_EhNH-7" target="OasMMPi9VcT6Bzo_EhNH-7">
          <mxGeometry relative="1" as="geometry" />
        </mxCell>
        <mxCell id="OasMMPi9VcT6Bzo_EhNH-32" style="edgeStyle=none;shape=connector;rounded=0;orthogonalLoop=1;jettySize=auto;html=1;labelBackgroundColor=default;strokeColor=default;fontFamily=Helvetica;fontSize=15;fontColor=default;endArrow=none;endFill=0;" edge="1" parent="1" source="OasMMPi9VcT6Bzo_EhNH-30" target="OasMMPi9VcT6Bzo_EhNH-6">
          <mxGeometry relative="1" as="geometry" />
        </mxCell>
        <mxCell id="OasMMPi9VcT6Bzo_EhNH-90" value="1" style="edgeLabel;html=1;align=center;verticalAlign=middle;resizable=0;points=[];fontSize=15;fontFamily=Helvetica;fontColor=default;fontStyle=1" vertex="1" connectable="0" parent="OasMMPi9VcT6Bzo_EhNH-32">
          <mxGeometry x="-0.3326" y="4" relative="1" as="geometry">
            <mxPoint x="-28" y="4" as="offset" />
          </mxGeometry>
        </mxCell>
        <mxCell id="OasMMPi9VcT6Bzo_EhNH-30" value="Pertence" style="shape=rhombus;perimeter=rhombusPerimeter;whiteSpace=wrap;html=1;align=center;fontFamily=Helvetica;fontSize=15;fontColor=default;" vertex="1" parent="1">
          <mxGeometry x="410" y="440" width="120" height="60" as="geometry" />
        </mxCell>
        <mxCell id="OasMMPi9VcT6Bzo_EhNH-35" style="edgeStyle=none;shape=connector;rounded=0;orthogonalLoop=1;jettySize=auto;html=1;labelBackgroundColor=default;strokeColor=default;fontFamily=Helvetica;fontSize=15;fontColor=default;endArrow=none;endFill=0;" edge="1" parent="1" source="OasMMPi9VcT6Bzo_EhNH-33" target="OasMMPi9VcT6Bzo_EhNH-34">
          <mxGeometry relative="1" as="geometry" />
        </mxCell>
        <mxCell id="OasMMPi9VcT6Bzo_EhNH-88" value="N" style="edgeLabel;html=1;align=center;verticalAlign=middle;resizable=0;points=[];fontSize=15;fontFamily=Helvetica;fontColor=default;fontStyle=1" vertex="1" connectable="0" parent="OasMMPi9VcT6Bzo_EhNH-35">
          <mxGeometry x="-0.1034" y="1" relative="1" as="geometry">
            <mxPoint x="-21" y="12" as="offset" />
          </mxGeometry>
        </mxCell>
        <mxCell id="OasMMPi9VcT6Bzo_EhNH-33" value="Serviço" style="shape=ext;margin=3;double=1;whiteSpace=wrap;html=1;align=center;fontFamily=Helvetica;fontSize=15;fontColor=default;" vertex="1" parent="1">
          <mxGeometry x="510" y="270" width="100" height="40" as="geometry" />
        </mxCell>
        <mxCell id="OasMMPi9VcT6Bzo_EhNH-36" style="edgeStyle=none;shape=connector;rounded=0;orthogonalLoop=1;jettySize=auto;html=1;labelBackgroundColor=default;strokeColor=default;fontFamily=Helvetica;fontSize=15;fontColor=default;endArrow=none;endFill=0;" edge="1" parent="1" source="OasMMPi9VcT6Bzo_EhNH-34" target="OasMMPi9VcT6Bzo_EhNH-1">
          <mxGeometry relative="1" as="geometry" />
        </mxCell>
        <mxCell id="OasMMPi9VcT6Bzo_EhNH-87" value="1" style="edgeLabel;html=1;align=center;verticalAlign=middle;resizable=0;points=[];fontSize=15;fontFamily=Helvetica;fontColor=default;fontStyle=1" vertex="1" connectable="0" parent="OasMMPi9VcT6Bzo_EhNH-36">
          <mxGeometry x="-0.1355" y="-3" relative="1" as="geometry">
            <mxPoint x="30" y="-11" as="offset" />
          </mxGeometry>
        </mxCell>
        <mxCell id="OasMMPi9VcT6Bzo_EhNH-34" value="Plano de &lt;br style=&quot;font-size: 15px;&quot;&gt;serviço" style="shape=rhombus;double=1;perimeter=rhombusPerimeter;whiteSpace=wrap;html=1;align=center;fontFamily=Helvetica;fontSize=15;fontColor=default;" vertex="1" parent="1">
          <mxGeometry x="350" y="325" width="130" height="85" as="geometry" />
        </mxCell>
        <mxCell id="OasMMPi9VcT6Bzo_EhNH-40" style="edgeStyle=none;shape=connector;rounded=0;orthogonalLoop=1;jettySize=auto;html=1;labelBackgroundColor=default;strokeColor=default;fontFamily=Helvetica;fontSize=15;fontColor=default;endArrow=none;endFill=0;" edge="1" parent="1" source="OasMMPi9VcT6Bzo_EhNH-37" target="OasMMPi9VcT6Bzo_EhNH-33">
          <mxGeometry relative="1" as="geometry" />
        </mxCell>
        <mxCell id="OasMMPi9VcT6Bzo_EhNH-86" value="N" style="edgeLabel;html=1;align=center;verticalAlign=middle;resizable=0;points=[];fontSize=15;fontFamily=Helvetica;fontColor=default;fontStyle=1" vertex="1" connectable="0" parent="OasMMPi9VcT6Bzo_EhNH-40">
          <mxGeometry x="-0.4346" y="4" relative="1" as="geometry">
            <mxPoint x="14" y="-5" as="offset" />
          </mxGeometry>
        </mxCell>
        <mxCell id="OasMMPi9VcT6Bzo_EhNH-37" value="Manutenção" style="shape=rhombus;perimeter=rhombusPerimeter;whiteSpace=wrap;html=1;align=center;fontFamily=Helvetica;fontSize=15;fontColor=default;" vertex="1" parent="1">
          <mxGeometry x="730" y="260" width="120" height="60" as="geometry" />
        </mxCell>
        <mxCell id="OasMMPi9VcT6Bzo_EhNH-44" style="edgeStyle=none;shape=connector;rounded=0;orthogonalLoop=1;jettySize=auto;html=1;labelBackgroundColor=default;strokeColor=default;fontFamily=Helvetica;fontSize=15;fontColor=default;endArrow=none;endFill=0;" edge="1" parent="1" source="OasMMPi9VcT6Bzo_EhNH-41" target="OasMMPi9VcT6Bzo_EhNH-17">
          <mxGeometry relative="1" as="geometry" />
        </mxCell>
        <mxCell id="OasMMPi9VcT6Bzo_EhNH-41" value="Nome" style="ellipse;whiteSpace=wrap;html=1;align=center;fontFamily=Helvetica;fontSize=15;fontColor=default;" vertex="1" parent="1">
          <mxGeometry x="310" y="20" width="100" height="40" as="geometry" />
        </mxCell>
        <mxCell id="OasMMPi9VcT6Bzo_EhNH-43" style="edgeStyle=none;shape=connector;rounded=0;orthogonalLoop=1;jettySize=auto;html=1;labelBackgroundColor=default;strokeColor=default;fontFamily=Helvetica;fontSize=15;fontColor=default;endArrow=none;endFill=0;" edge="1" parent="1" source="OasMMPi9VcT6Bzo_EhNH-42" target="OasMMPi9VcT6Bzo_EhNH-17">
          <mxGeometry relative="1" as="geometry" />
        </mxCell>
        <mxCell id="OasMMPi9VcT6Bzo_EhNH-42" value="Número Licença" style="ellipse;whiteSpace=wrap;html=1;align=center;fontStyle=4;fontFamily=Helvetica;fontSize=15;fontColor=default;" vertex="1" parent="1">
          <mxGeometry x="20" y="15" width="110" height="50" as="geometry" />
        </mxCell>
        <mxCell id="OasMMPi9VcT6Bzo_EhNH-48" style="edgeStyle=none;shape=connector;rounded=0;orthogonalLoop=1;jettySize=auto;html=1;labelBackgroundColor=default;strokeColor=default;fontFamily=Helvetica;fontSize=15;fontColor=default;endArrow=none;endFill=0;" edge="1" parent="1" source="OasMMPi9VcT6Bzo_EhNH-45" target="OasMMPi9VcT6Bzo_EhNH-2">
          <mxGeometry relative="1" as="geometry" />
        </mxCell>
        <mxCell id="OasMMPi9VcT6Bzo_EhNH-45" value="Modelo" style="ellipse;whiteSpace=wrap;html=1;align=center;fontStyle=4;fontFamily=Helvetica;fontSize=15;fontColor=default;" vertex="1" parent="1">
          <mxGeometry x="50" y="180" width="100" height="40" as="geometry" />
        </mxCell>
        <mxCell id="OasMMPi9VcT6Bzo_EhNH-49" style="edgeStyle=none;shape=connector;rounded=0;orthogonalLoop=1;jettySize=auto;html=1;labelBackgroundColor=default;strokeColor=default;fontFamily=Helvetica;fontSize=15;fontColor=default;endArrow=none;endFill=0;" edge="1" parent="1" source="OasMMPi9VcT6Bzo_EhNH-46" target="OasMMPi9VcT6Bzo_EhNH-2">
          <mxGeometry relative="1" as="geometry" />
        </mxCell>
        <mxCell id="OasMMPi9VcT6Bzo_EhNH-46" value="Capacidade" style="ellipse;whiteSpace=wrap;html=1;align=center;fontFamily=Helvetica;fontSize=15;fontColor=default;" vertex="1" parent="1">
          <mxGeometry x="40" y="240" width="100" height="40" as="geometry" />
        </mxCell>
        <mxCell id="OasMMPi9VcT6Bzo_EhNH-50" style="edgeStyle=none;shape=connector;rounded=0;orthogonalLoop=1;jettySize=auto;html=1;labelBackgroundColor=default;strokeColor=default;fontFamily=Helvetica;fontSize=15;fontColor=default;endArrow=none;endFill=0;" edge="1" parent="1" source="OasMMPi9VcT6Bzo_EhNH-47" target="OasMMPi9VcT6Bzo_EhNH-2">
          <mxGeometry relative="1" as="geometry" />
        </mxCell>
        <mxCell id="OasMMPi9VcT6Bzo_EhNH-47" value="Peso" style="ellipse;whiteSpace=wrap;html=1;align=center;fontFamily=Helvetica;fontSize=15;fontColor=default;" vertex="1" parent="1">
          <mxGeometry x="80" y="300" width="100" height="40" as="geometry" />
        </mxCell>
        <mxCell id="OasMMPi9VcT6Bzo_EhNH-52" style="edgeStyle=none;shape=connector;rounded=0;orthogonalLoop=1;jettySize=auto;html=1;labelBackgroundColor=default;strokeColor=default;fontFamily=Helvetica;fontSize=15;fontColor=default;endArrow=none;endFill=0;" edge="1" parent="1" source="OasMMPi9VcT6Bzo_EhNH-51" target="OasMMPi9VcT6Bzo_EhNH-1">
          <mxGeometry relative="1" as="geometry" />
        </mxCell>
        <mxCell id="OasMMPi9VcT6Bzo_EhNH-51" value="Número de Registro" style="ellipse;whiteSpace=wrap;html=1;align=center;fontStyle=4;fontFamily=Helvetica;fontSize=15;fontColor=default;" vertex="1" parent="1">
          <mxGeometry x="30" y="430" width="110" height="60" as="geometry" />
        </mxCell>
        <mxCell id="OasMMPi9VcT6Bzo_EhNH-56" style="edgeStyle=none;shape=connector;rounded=0;orthogonalLoop=1;jettySize=auto;html=1;labelBackgroundColor=default;strokeColor=default;fontFamily=Helvetica;fontSize=15;fontColor=default;endArrow=none;endFill=0;" edge="1" parent="1" source="OasMMPi9VcT6Bzo_EhNH-53" target="OasMMPi9VcT6Bzo_EhNH-5">
          <mxGeometry relative="1" as="geometry" />
        </mxCell>
        <mxCell id="OasMMPi9VcT6Bzo_EhNH-53" value="Número" style="ellipse;whiteSpace=wrap;html=1;align=center;fontStyle=4;fontFamily=Helvetica;fontSize=15;fontColor=default;" vertex="1" parent="1">
          <mxGeometry x="40" y="720" width="100" height="40" as="geometry" />
        </mxCell>
        <mxCell id="OasMMPi9VcT6Bzo_EhNH-57" style="edgeStyle=none;shape=connector;rounded=0;orthogonalLoop=1;jettySize=auto;html=1;labelBackgroundColor=default;strokeColor=default;fontFamily=Helvetica;fontSize=15;fontColor=default;endArrow=none;endFill=0;" edge="1" parent="1" source="OasMMPi9VcT6Bzo_EhNH-54" target="OasMMPi9VcT6Bzo_EhNH-5">
          <mxGeometry relative="1" as="geometry" />
        </mxCell>
        <mxCell id="OasMMPi9VcT6Bzo_EhNH-54" value="Localização" style="ellipse;whiteSpace=wrap;html=1;align=center;fontFamily=Helvetica;fontSize=15;fontColor=default;" vertex="1" parent="1">
          <mxGeometry x="180" y="770" width="100" height="40" as="geometry" />
        </mxCell>
        <mxCell id="OasMMPi9VcT6Bzo_EhNH-58" style="edgeStyle=none;shape=connector;rounded=0;orthogonalLoop=1;jettySize=auto;html=1;labelBackgroundColor=default;strokeColor=default;fontFamily=Helvetica;fontSize=15;fontColor=default;endArrow=none;endFill=0;" edge="1" parent="1" source="OasMMPi9VcT6Bzo_EhNH-55" target="OasMMPi9VcT6Bzo_EhNH-5">
          <mxGeometry relative="1" as="geometry" />
        </mxCell>
        <mxCell id="OasMMPi9VcT6Bzo_EhNH-55" value="Capacidade" style="ellipse;whiteSpace=wrap;html=1;align=center;fontFamily=Helvetica;fontSize=15;fontColor=default;" vertex="1" parent="1">
          <mxGeometry x="300" y="740" width="100" height="40" as="geometry" />
        </mxCell>
        <mxCell id="OasMMPi9VcT6Bzo_EhNH-60" style="edgeStyle=none;shape=connector;rounded=0;orthogonalLoop=1;jettySize=auto;html=1;labelBackgroundColor=default;strokeColor=default;fontFamily=Helvetica;fontSize=15;fontColor=default;endArrow=none;endFill=0;" edge="1" parent="1" source="OasMMPi9VcT6Bzo_EhNH-59" target="OasMMPi9VcT6Bzo_EhNH-7">
          <mxGeometry relative="1" as="geometry" />
        </mxCell>
        <mxCell id="OasMMPi9VcT6Bzo_EhNH-59" value="CNPJ" style="ellipse;whiteSpace=wrap;html=1;align=center;fontStyle=4;fontFamily=Helvetica;fontSize=15;fontColor=default;" vertex="1" parent="1">
          <mxGeometry x="570" y="660" width="100" height="40" as="geometry" />
        </mxCell>
        <mxCell id="OasMMPi9VcT6Bzo_EhNH-62" style="edgeStyle=none;shape=connector;rounded=0;orthogonalLoop=1;jettySize=auto;html=1;labelBackgroundColor=default;strokeColor=default;fontFamily=Helvetica;fontSize=15;fontColor=default;endArrow=none;endFill=0;" edge="1" parent="1" source="OasMMPi9VcT6Bzo_EhNH-61" target="OasMMPi9VcT6Bzo_EhNH-8">
          <mxGeometry relative="1" as="geometry">
            <mxPoint x="790" y="640" as="targetPoint" />
          </mxGeometry>
        </mxCell>
        <mxCell id="OasMMPi9VcT6Bzo_EhNH-61" value="CPF" style="ellipse;whiteSpace=wrap;html=1;align=center;fontStyle=4;fontFamily=Helvetica;fontSize=15;fontColor=default;" vertex="1" parent="1">
          <mxGeometry x="740" y="660" width="100" height="40" as="geometry" />
        </mxCell>
        <mxCell id="OasMMPi9VcT6Bzo_EhNH-64" style="edgeStyle=none;shape=connector;rounded=0;orthogonalLoop=1;jettySize=auto;html=1;labelBackgroundColor=default;strokeColor=default;fontFamily=Helvetica;fontSize=15;fontColor=default;endArrow=none;endFill=0;" edge="1" parent="1" source="OasMMPi9VcT6Bzo_EhNH-63" target="OasMMPi9VcT6Bzo_EhNH-6">
          <mxGeometry relative="1" as="geometry" />
        </mxCell>
        <mxCell id="OasMMPi9VcT6Bzo_EhNH-63" value="IdProprietário" style="ellipse;whiteSpace=wrap;html=1;align=center;fontStyle=4;fontFamily=Helvetica;fontSize=15;fontColor=default;" vertex="1" parent="1">
          <mxGeometry x="560" y="360" width="120" height="50" as="geometry" />
        </mxCell>
        <mxCell id="OasMMPi9VcT6Bzo_EhNH-66" style="edgeStyle=none;shape=connector;rounded=0;orthogonalLoop=1;jettySize=auto;html=1;labelBackgroundColor=default;strokeColor=default;fontFamily=Helvetica;fontSize=15;fontColor=default;endArrow=none;endFill=0;" edge="1" parent="1" source="OasMMPi9VcT6Bzo_EhNH-67" target="OasMMPi9VcT6Bzo_EhNH-6">
          <mxGeometry relative="1" as="geometry">
            <mxPoint x="722.9524249015271" y="399.8003300385676" as="sourcePoint" />
          </mxGeometry>
        </mxCell>
        <mxCell id="OasMMPi9VcT6Bzo_EhNH-67" value="Telefone" style="ellipse;shape=doubleEllipse;margin=3;whiteSpace=wrap;html=1;align=center;fontFamily=Helvetica;fontSize=15;fontColor=default;" vertex="1" parent="1">
          <mxGeometry x="700" y="360" width="100" height="40" as="geometry" />
        </mxCell>
        <mxCell id="OasMMPi9VcT6Bzo_EhNH-74" style="edgeStyle=none;shape=connector;rounded=0;orthogonalLoop=1;jettySize=auto;html=1;labelBackgroundColor=default;strokeColor=default;fontFamily=Helvetica;fontSize=15;fontColor=default;endArrow=none;endFill=0;" edge="1" parent="1" source="OasMMPi9VcT6Bzo_EhNH-68" target="OasMMPi9VcT6Bzo_EhNH-73">
          <mxGeometry relative="1" as="geometry" />
        </mxCell>
        <mxCell id="OasMMPi9VcT6Bzo_EhNH-75" style="edgeStyle=none;shape=connector;rounded=0;orthogonalLoop=1;jettySize=auto;html=1;labelBackgroundColor=default;strokeColor=default;fontFamily=Helvetica;fontSize=15;fontColor=default;endArrow=none;endFill=0;" edge="1" parent="1" source="OasMMPi9VcT6Bzo_EhNH-68" target="OasMMPi9VcT6Bzo_EhNH-72">
          <mxGeometry relative="1" as="geometry" />
        </mxCell>
        <mxCell id="OasMMPi9VcT6Bzo_EhNH-76" style="edgeStyle=none;shape=connector;rounded=0;orthogonalLoop=1;jettySize=auto;html=1;labelBackgroundColor=default;strokeColor=default;fontFamily=Helvetica;fontSize=15;fontColor=default;endArrow=none;endFill=0;" edge="1" parent="1" source="OasMMPi9VcT6Bzo_EhNH-68" target="OasMMPi9VcT6Bzo_EhNH-71">
          <mxGeometry relative="1" as="geometry" />
        </mxCell>
        <mxCell id="OasMMPi9VcT6Bzo_EhNH-77" style="edgeStyle=none;shape=connector;rounded=0;orthogonalLoop=1;jettySize=auto;html=1;labelBackgroundColor=default;strokeColor=default;fontFamily=Helvetica;fontSize=15;fontColor=default;endArrow=none;endFill=0;" edge="1" parent="1" source="OasMMPi9VcT6Bzo_EhNH-68" target="OasMMPi9VcT6Bzo_EhNH-70">
          <mxGeometry relative="1" as="geometry" />
        </mxCell>
        <mxCell id="OasMMPi9VcT6Bzo_EhNH-68" value="Endereço" style="ellipse;whiteSpace=wrap;html=1;align=center;fontFamily=Helvetica;fontSize=15;fontColor=default;" vertex="1" parent="1">
          <mxGeometry x="780" y="450" width="100" height="40" as="geometry" />
        </mxCell>
        <mxCell id="OasMMPi9VcT6Bzo_EhNH-70" value="Rua" style="ellipse;whiteSpace=wrap;html=1;align=center;fontFamily=Helvetica;fontSize=15;fontColor=default;" vertex="1" parent="1">
          <mxGeometry x="830" y="518" width="100" height="40" as="geometry" />
        </mxCell>
        <mxCell id="OasMMPi9VcT6Bzo_EhNH-71" value="Cidade" style="ellipse;whiteSpace=wrap;html=1;align=center;fontFamily=Helvetica;fontSize=15;fontColor=default;" vertex="1" parent="1">
          <mxGeometry x="910" y="478" width="100" height="40" as="geometry" />
        </mxCell>
        <mxCell id="OasMMPi9VcT6Bzo_EhNH-72" value="Número" style="ellipse;whiteSpace=wrap;html=1;align=center;fontFamily=Helvetica;fontSize=15;fontColor=default;" vertex="1" parent="1">
          <mxGeometry x="930" y="425" width="100" height="40" as="geometry" />
        </mxCell>
        <mxCell id="OasMMPi9VcT6Bzo_EhNH-73" value="CEP" style="ellipse;whiteSpace=wrap;html=1;align=center;fontFamily=Helvetica;fontSize=15;fontColor=default;" vertex="1" parent="1">
          <mxGeometry x="850" y="385" width="100" height="40" as="geometry" />
        </mxCell>
        <mxCell id="OasMMPi9VcT6Bzo_EhNH-78" value="Salário" style="ellipse;whiteSpace=wrap;html=1;align=center;fontFamily=Helvetica;fontSize=15;fontColor=default;" vertex="1" parent="1">
          <mxGeometry x="840" y="30" width="100" height="40" as="geometry" />
        </mxCell>
        <mxCell id="OasMMPi9VcT6Bzo_EhNH-79" value="Nome" style="ellipse;whiteSpace=wrap;html=1;align=center;fontFamily=Helvetica;fontSize=15;fontColor=default;" vertex="1" parent="1">
          <mxGeometry x="860" y="90" width="100" height="40" as="geometry" />
        </mxCell>
        <mxCell id="OasMMPi9VcT6Bzo_EhNH-82" style="edgeStyle=none;shape=connector;rounded=0;orthogonalLoop=1;jettySize=auto;html=1;labelBackgroundColor=default;strokeColor=default;fontFamily=Helvetica;fontSize=15;fontColor=default;endArrow=none;endFill=0;" edge="1" parent="1" source="OasMMPi9VcT6Bzo_EhNH-81" target="OasMMPi9VcT6Bzo_EhNH-4">
          <mxGeometry relative="1" as="geometry" />
        </mxCell>
        <mxCell id="OasMMPi9VcT6Bzo_EhNH-81" value="IdFuncionário" style="ellipse;whiteSpace=wrap;html=1;align=center;fontStyle=4;fontFamily=Helvetica;fontSize=15;fontColor=default;" vertex="1" parent="1">
          <mxGeometry x="670" y="10" width="120" height="50" as="geometry" />
        </mxCell>
        <mxCell id="OasMMPi9VcT6Bzo_EhNH-101" style="edgeStyle=none;shape=connector;rounded=0;orthogonalLoop=1;jettySize=auto;html=1;labelBackgroundColor=default;strokeColor=default;fontFamily=Helvetica;fontSize=15;fontColor=default;endArrow=none;endFill=0;" edge="1" parent="1" source="OasMMPi9VcT6Bzo_EhNH-100" target="OasMMPi9VcT6Bzo_EhNH-33">
          <mxGeometry relative="1" as="geometry" />
        </mxCell>
        <mxCell id="OasMMPi9VcT6Bzo_EhNH-100" value="Horas" style="ellipse;whiteSpace=wrap;html=1;align=center;fontFamily=Helvetica;fontSize=15;fontColor=default;" vertex="1" parent="1">
          <mxGeometry x="510" y="170" width="100" height="40" as="geometry" />
        </mxCell>
        <mxCell id="OasMMPi9VcT6Bzo_EhNH-105" style="edgeStyle=none;shape=connector;rounded=0;orthogonalLoop=1;jettySize=auto;html=1;labelBackgroundColor=default;strokeColor=default;fontFamily=Helvetica;fontSize=15;fontColor=default;endArrow=none;endFill=0;" edge="1" parent="1" source="OasMMPi9VcT6Bzo_EhNH-104" target="OasMMPi9VcT6Bzo_EhNH-33">
          <mxGeometry relative="1" as="geometry" />
        </mxCell>
        <mxCell id="OasMMPi9VcT6Bzo_EhNH-104" value="&lt;span style=&quot;border-bottom: 1px dotted; font-size: 15px;&quot;&gt;Código Serviço&lt;/span&gt;" style="ellipse;whiteSpace=wrap;html=1;align=center;fontFamily=Helvetica;fontSize=15;fontColor=default;" vertex="1" parent="1">
          <mxGeometry x="380" y="200" width="110" height="50" as="geometry" />
        </mxCell>
        <mxCell id="OasMMPi9VcT6Bzo_EhNH-107" style="edgeStyle=none;shape=connector;rounded=0;orthogonalLoop=1;jettySize=auto;html=1;labelBackgroundColor=default;strokeColor=default;fontFamily=Helvetica;fontSize=15;fontColor=default;endArrow=none;endFill=0;" edge="1" parent="1" source="OasMMPi9VcT6Bzo_EhNH-106" target="OasMMPi9VcT6Bzo_EhNH-30">
          <mxGeometry relative="1" as="geometry" />
        </mxCell>
        <mxCell id="OasMMPi9VcT6Bzo_EhNH-106" value="Data Compra" style="ellipse;whiteSpace=wrap;html=1;align=center;fontFamily=Helvetica;fontSize=15;fontColor=default;" vertex="1" parent="1">
          <mxGeometry x="420" y="530" width="100" height="40" as="geometry" />
        </mxCell>
        <mxCell id="OasMMPi9VcT6Bzo_EhNH-108" style="edgeStyle=none;shape=connector;rounded=0;orthogonalLoop=1;jettySize=auto;html=1;exitX=0.5;exitY=0;exitDx=0;exitDy=0;labelBackgroundColor=default;strokeColor=default;fontFamily=Helvetica;fontSize=15;fontColor=default;endArrow=none;endFill=0;" edge="1" parent="1" source="OasMMPi9VcT6Bzo_EhNH-73" target="OasMMPi9VcT6Bzo_EhNH-73">
          <mxGeometry relative="1" as="geometry" />
        </mxCell>
      </root>
    </mxGraphModel>
  </diagram>
</mxfile>
